<svg width="45" height="46" viewBox="0 0 45 46" fill="none" xmlns="http://www.w3.org/2000/svg">
<path d="M25.1213 25.1213C26.2929 23.9497 26.2929 22.0503 25.1213 20.8787L6.02944 1.7868C4.85786 0.615224 2.95837 0.615224 1.7868 1.7868C0.615224 2.95837 0.615224 4.85786 1.7868 6.02944L18.7574 23L1.7868 39.9706C0.615224 41.1421 0.615224 43.0416 1.7868 44.2132C2.95837 45.3848 4.85786 45.3848 6.02944 44.2132L25.1213 25.1213ZM20 26H23V20H20V26Z" fill="#E88B00" fill-opacity="0.59"/>
<path d="M44.1213 25.1213C45.2929 23.9497 45.2929 22.0503 44.1213 20.8787L25.0294 1.7868C23.8579 0.615223 21.9584 0.615223 20.7868 1.7868C19.6152 2.95837 19.6152 4.85786 20.7868 6.02944L37.7574 23L20.7868 39.9706C19.6152 41.1421 19.6152 43.0416 20.7868 44.2132C21.9584 45.3848 23.8579 45.3848 25.0294 44.2132L44.1213 25.1213ZM39 26H42V20H39V26Z" fill="#E88B00" fill-opacity="0.59"/>
</svg>
