<svg width="118" height="97" viewBox="0 0 118 97" fill="none" xmlns="http://www.w3.org/2000/svg">
<path d="M93.5992 94C93.3774 94 93.1557 94 92.9339 93.7751L74.0817 82.7531C69.2023 83.6528 64.1011 84.3277 59 84.3277C27.7276 84.3277 2 65.8826 2 43.1638C2 20.445 27.5058 2 59 2C90.2723 2 116 20.445 116 43.1638C116 55.5354 108.459 67.2323 95.1518 75.1051V92.6504C95.1518 93.1002 94.9299 93.5501 94.4864 94C94.2646 93.7751 94.0428 94 93.5992 94ZM74.5253 79.8289C74.747 79.8289 74.9689 79.8289 75.1907 80.0538L92.2685 89.9511V74.2054C92.2685 73.7555 92.4903 73.0807 92.9339 72.8558C105.798 65.6577 113.117 54.6357 113.117 43.1638C113.117 22.0195 88.9416 4.92418 59 4.92418C29.2801 4.92418 4.88324 22.0195 4.88324 43.1638C4.88324 64.3081 29.0583 81.4034 59 81.4034C64.1011 81.4034 69.2023 80.9536 74.0817 79.8289C74.3035 79.8289 74.3035 79.8289 74.5253 79.8289Z" fill="white" stroke="white" stroke-width="3"/>
<circle cx="36" cy="43" r="5" fill="white"/>
<circle cx="59" cy="43" r="5" fill="white"/>
<circle cx="82" cy="43" r="5" fill="white"/>
</svg>
