<svg viewBox="0 0 178 140" fill="none" xmlns="http://www.w3.org/2000/svg">
<path d="M177.891 34.091V127C177.891 131.287 175.028 134.832 171.425 134.921L141.413 135.663L48.8514 137.967C45.0849 138.056 41.5797 134.943 41.1661 130.833C41.1334 130.523 40.7197 130.202 40.7197 129.881V30.9006C40.7197 29.2278 41.5688 27.688 42.3308 26.4141C42.3526 26.3808 42.5703 26.3476 42.5921 26.3144C43.9202 24.1542 46.2497 22.7806 48.7643 22.847L62.807 23.2237L171.403 26.1593C175.007 26.259 177.891 29.8039 177.891 34.091Z" fill="white"/>
<path d="M48.8628 135.342C46.1087 135.408 43.8662 132.938 43.8662 129.836V30.967C43.8662 27.8652 46.1087 25.406 48.8628 25.4724L171.469 28.6407C173.918 28.7072 175.911 31.1221 175.911 34.0466V127.045C175.911 129.958 173.918 132.373 171.469 132.439L48.8628 135.342Z" fill="url(#paint0_linear_1455_24861)"/>
<path d="M171.48 26.1592L48.8731 22.847C44.8236 22.7362 41.5361 26.3475 41.5361 30.9116V36.8382L178 39.652V34.0909C177.989 29.8038 175.072 26.2589 171.48 26.1592Z" fill="#D8DEE8"/>
<path d="M54.5884 30.1916C54.5884 31.5542 53.5216 32.6287 52.2044 32.5955C50.8873 32.5622 49.8096 31.4323 49.8096 30.0697C49.8096 28.7072 50.8764 27.6326 52.2044 27.6659C53.5216 27.7102 54.5884 28.8401 54.5884 30.1916Z" fill="white"/>
<path d="M62.9267 30.3912C62.9267 31.7426 61.8708 32.8172 60.5645 32.795C59.2582 32.7618 58.1914 31.6429 58.1914 30.2804C58.1914 28.9178 59.2582 27.8543 60.5645 27.8765C61.8599 27.9097 62.9267 29.0397 62.9267 30.3912Z" fill="white"/>
<path d="M71.1997 30.5903C71.1997 31.9418 70.1438 33.0052 68.8484 32.9831C67.553 32.9498 66.4971 31.831 66.4971 30.4795C66.4971 29.128 67.553 28.0535 68.8484 28.0867C70.1438 28.1199 71.1997 29.2388 71.1997 30.5903Z" fill="white"/>
<path d="M170.391 127.2L50.0811 129.748V51.8819L170.391 53.5546V127.2Z" fill="#D8DEE8"/>
<g opacity="0.5">
<path d="M114.406 44.9472L50.082 43.8173V48.0268L114.406 49.0349V44.9472Z" fill="white"/>
<path d="M163.446 45.8113V49.7993L170.391 49.9101V45.9331L163.446 45.8113Z" fill="white"/>
</g>
<g opacity="0.5">
<path d="M142.198 135.663L49.6251 137.967C45.8586 138.056 42.3317 134.943 41.9071 130.833C41.9071 130.744 41.4717 130.656 41.4717 130.567V30.8561C41.4717 29.2055 42.3208 27.6879 43.061 26.4139C43.0828 26.3807 43.3114 26.3475 43.3331 26.3142C44.6503 24.0987 47.0125 22.6807 49.5598 22.7472L63.5262 23.1238C63.5371 23.1571 63.5698 23.1903 63.5807 23.2235C63.8419 24.0876 64.1358 24.9627 64.4515 25.86C65.6925 29.3938 67.3472 33.0938 69.5678 36.7495C69.6985 36.971 69.84 37.1926 69.9815 37.4142C71.6144 40.0174 73.3561 42.2662 75.1631 44.2381C76.611 45.8111 78.1132 47.218 79.6481 48.4698C81.4442 49.9431 83.3057 51.2171 85.1889 52.3581C98.7853 60.5667 114.047 61.6413 124.171 78.0918C132.847 92.1938 126.631 99.5937 135.024 121.173C135.938 123.522 136.918 125.759 137.952 127.909C138.834 129.736 139.759 131.498 140.728 133.193C141.218 134.023 141.708 134.854 142.198 135.663Z" fill="white"/>
</g>
<path d="M93.2131 126.446C72.3233 123.167 67.6751 120.752 65.5197 116.244C62.3846 109.686 64.6597 98.9957 70.0264 92.4266C74.7073 86.6772 80.5311 85.5694 80.3679 81.5925C80.2263 78.3245 76.2422 77.8814 73.303 71.7111C72.443 69.9054 70.7775 66.4049 71.5069 62.2064C72.5737 56.0693 77.973 52.9121 78.4193 52.6684C84.0581 49.5002 87.2586 53.2888 91.4822 50.4418C96.751 46.8969 94.367 39.22 99.2982 37.1041C102.88 35.5754 107.441 38.2119 108.627 38.8987C112.59 41.1918 112.165 43.4185 115.507 44.8475C119.415 46.5202 121.277 44.0056 125.794 45.1023C129.517 46.0107 132.206 48.8023 134.394 51.6049C139.303 57.886 136.865 61.5417 140.49 69.2408C145.574 80.0416 153.226 78.8452 154.587 87.4526C155.295 91.9502 153.477 93.9996 154.87 100.89C155.817 105.543 156.993 106.373 157.211 109.099C157.809 116.964 149.079 123.965 147.446 125.195C136.985 133.115 122.42 131.022 93.2131 126.446Z" fill="url(#paint1_linear_1455_24861)"/>
<path opacity="0.7" d="M126.437 105.166C112.764 104.191 103.457 117.474 99.7446 114.217C96.2285 111.126 106.145 100.536 102.76 88.2393C99.4289 76.1423 86.3116 73.539 87.3566 66.7041C88.5323 58.9718 106.069 57.1993 105.656 51.5275C105.416 48.182 99.233 47.3622 97.992 42.0228C97.6545 40.5716 97.7634 39.1425 98.1226 37.8021C94.7154 40.5605 96.2612 47.2182 91.4605 50.4529C87.2369 53.2999 84.0364 49.5113 78.3976 52.6796C77.9622 52.9233 72.552 56.0805 71.4852 62.2176C70.7558 66.416 72.4213 69.9166 73.2813 71.7223C76.2205 77.8926 80.2046 78.3357 80.3462 81.6037C80.5203 85.5806 74.6856 86.6994 70.0047 92.4377C64.6489 99.0068 62.3629 109.686 65.498 116.255C67.6534 120.764 72.3016 123.179 93.1914 126.458C122.387 131.033 136.952 133.126 147.403 125.228C151.43 122.182 156.176 117.019 157.189 112.455C155.164 114.416 153.172 115.38 151.311 115.745C142.656 117.485 138.629 106.03 126.437 105.166Z" fill="url(#paint2_linear_1455_24861)"/>
<path d="M69.9167 131.453C66.7489 123.378 68.6757 131.011 69.0894 128.319C70.6787 117.839 74.4125 111.336 75.7732 109.021C85.0697 93.2353 99.1232 93.3461 109.672 93.4347C114.864 93.479 120.242 93.3571 126.795 95.8164C126.795 95.8164 131.966 97.755 136.331 101.001C149.328 110.65 159.55 121.849 149.1 133.979C142.427 141.734 135.558 132.085 105.578 137.258C93.4517 139.352 80.6174 142.764 72.9647 136.017C71.6911 134.91 70.6896 133.414 69.9167 131.453Z" fill="url(#paint3_linear_1455_24861)"/>
<path d="M104.142 77.7927C104.142 77.7927 106.362 94.7196 95.0738 98.0983C93.7675 98.486 93.3647 100.247 94.3553 101.222L108.278 114.992C109.116 115.823 110.434 115.756 111.206 114.837L123.682 100.059C124.498 99.0953 124.139 97.5666 122.996 97.1124C119.001 95.5504 111.827 90.9864 113.34 78.6457L104.142 77.7927Z" fill="url(#paint4_linear_1455_24861)"/>
<path d="M97.2183 68.3436C97.2183 68.5319 100.266 85.0932 108.061 85.1153C115.398 85.1375 118.173 73.0516 119.077 67.413C119.175 66.4493 119.273 65.4966 119.36 64.5328C118.859 64.699 117.629 65.0424 116.16 64.5993C115.822 64.4996 113.699 63.8571 112.905 61.9849C112.023 59.8912 113.645 58.2628 112.72 56.4239C112.186 55.3604 111.109 54.8508 110.281 54.585C110.825 55.449 111.892 57.3655 111.294 59.0936C110.891 60.2568 109.759 61.3535 107.233 62.0071C99.9833 63.8792 97.1421 64.5882 97.2183 68.3436Z" fill="url(#paint5_linear_1455_24861)"/>
<path d="M99.1229 70.3376C99.1229 70.3376 95.0843 66.693 94.736 68.8975C93.9957 73.5058 97.4574 76.0759 99.3298 74.7133C101.202 73.3508 99.1229 70.3376 99.1229 70.3376Z" fill="url(#paint6_linear_1455_24861)"/>
<path d="M116.78 70.4815C116.78 70.4815 120.753 66.9366 121.091 69.13C121.809 73.7052 118.424 76.1976 116.573 74.824C114.733 73.4393 116.78 70.4815 116.78 70.4815Z" fill="url(#paint7_linear_1455_24861)"/>
<path d="M96.3361 120.287C96.3361 122.702 94.4855 124.685 92.1886 124.718C89.8917 124.752 88.0303 122.802 88.0303 120.376C88.0303 117.95 89.8917 115.967 92.1886 115.945C94.4855 115.923 96.3361 117.861 96.3361 120.287Z" fill="white"/>
<path d="M115.604 120.066C115.604 122.47 113.775 124.43 111.522 124.464C109.258 124.497 107.429 122.569 107.429 120.154C107.429 117.75 109.268 115.779 111.522 115.756C113.775 115.734 115.604 117.662 115.604 120.066Z" fill="white"/>
<path d="M134.567 119.844C134.567 122.226 132.771 124.176 130.55 124.209C128.319 124.242 126.512 122.326 126.512 119.933C126.512 117.54 128.319 115.59 130.55 115.568C132.771 115.546 134.567 117.463 134.567 119.844Z" fill="white"/>
<path d="M66.1101 41.9293C69.3867 37.753 71.27 32.8566 71.27 27.6058C71.27 12.3627 55.3114 -6.10352e-05 35.6408 -6.10352e-05C15.9703 -6.10352e-05 0.0117188 12.3627 0.0117188 27.6058C0.0117188 42.8488 15.9703 55.2116 35.6408 55.2116C43.0214 55.2116 49.8685 53.4724 55.5509 50.5035C59.3065 51.1571 65.1413 52.2538 68.2219 52.8299C69.1255 52.996 69.8657 52.0987 69.55 51.2236L66.1101 41.9293Z" fill="url(#paint8_linear_1455_24861)"/>
<g opacity="0.3">
<path d="M55.1364 33.4436C47.1463 30.0205 38.3615 37.2432 32.8641 32.2028C27.3233 27.1292 33.3105 17.1038 28.0091 9.94758C25.4836 6.53563 21.2272 4.92935 16.3722 4.36438C6.52058 9.27184 0 17.846 0 27.5945C0 42.8375 15.9585 55.2003 35.6291 55.2003C43.0097 55.2003 49.8568 53.4611 55.5392 50.4922C58.5001 51.0018 62.7565 51.7994 65.9351 52.3976C63.6055 40.0459 59.2948 35.2271 55.1364 33.4436Z" fill="url(#paint9_linear_1455_24861)"/>
</g>
<path d="M59.2746 17.5138C59.2746 18.2782 58.665 18.9096 57.903 18.9096H14.5777C13.8265 18.9096 13.2061 18.2893 13.2061 17.5138C13.2061 16.7495 13.8157 16.118 14.5777 16.118H57.8921C58.6541 16.118 59.2746 16.7495 59.2746 17.5138Z" fill="white"/>
<path d="M59.2746 25.8668C59.2746 26.6312 58.665 27.2626 57.903 27.2626H14.5777C13.8265 27.2626 13.2061 26.6423 13.2061 25.8668C13.2061 25.1024 13.8157 24.471 14.5777 24.471H57.8921C58.6541 24.471 59.2746 25.1024 59.2746 25.8668Z" fill="white"/>
<path d="M38.755 34.2196C38.755 34.984 38.1454 35.6154 37.3833 35.6154H14.5777C13.8265 35.6154 13.2061 34.995 13.2061 34.2196C13.2061 33.4552 13.8157 32.8238 14.5777 32.8238H37.3725C38.1345 32.8238 38.755 33.4552 38.755 34.2196Z" fill="white"/>
<defs>
<linearGradient id="paint0_linear_1455_24861" x1="43.8724" y1="80.4094" x2="175.913" y2="80.4094" gradientUnits="userSpaceOnUse">
<stop stop-color="white"/>
<stop offset="0.9964" stop-color="#EBEFF2"/>
</linearGradient>
<linearGradient id="paint1_linear_1455_24861" x1="142.392" y1="31.0169" x2="116.324" y2="81.182" gradientUnits="userSpaceOnUse">
<stop stop-color="#22161C"/>
<stop offset="1" stop-color="#48232B"/>
</linearGradient>
<linearGradient id="paint2_linear_1455_24861" x1="142.997" y1="30.0452" x2="116.666" y2="80.717" gradientUnits="userSpaceOnUse">
<stop stop-color="#34232C"/>
<stop offset="1" stop-color="#341E22"/>
</linearGradient>
<linearGradient id="paint3_linear_1455_24861" x1="117.516" y1="193.301" x2="104.936" y2="103.671" gradientUnits="userSpaceOnUse">
<stop offset="0.00359712" stop-color="#84CA55"/>
<stop offset="1" stop-color="#4F9422"/>
</linearGradient>
<linearGradient id="paint4_linear_1455_24861" x1="109.765" y1="117.329" x2="107.923" y2="78.0394" gradientUnits="userSpaceOnUse">
<stop stop-color="#FFC444"/>
<stop offset="0.9964" stop-color="#F36F56"/>
</linearGradient>
<linearGradient id="paint5_linear_1455_24861" x1="107.865" y1="82.7803" x2="108.571" y2="56.2239" gradientUnits="userSpaceOnUse">
<stop stop-color="#FFC444"/>
<stop offset="0.9964" stop-color="#F36F56"/>
</linearGradient>
<linearGradient id="paint6_linear_1455_24861" x1="97.159" y1="79.9902" x2="97.8091" y2="55.531" gradientUnits="userSpaceOnUse">
<stop stop-color="#FFC444"/>
<stop offset="0.9964" stop-color="#F36F56"/>
</linearGradient>
<linearGradient id="paint7_linear_1455_24861" x1="118.274" y1="80.6166" x2="118.914" y2="56.5413" gradientUnits="userSpaceOnUse">
<stop stop-color="#FFC444"/>
<stop offset="0.9964" stop-color="#F36F56"/>
</linearGradient>
<linearGradient id="paint8_linear_1455_24861" x1="0.00331494" y1="27.6039" x2="71.2708" y2="27.6039" gradientUnits="userSpaceOnUse">
<stop stop-color="#69B033"/>
<stop offset="0.9964" stop-color="#91D665"/>
</linearGradient>
<linearGradient id="paint9_linear_1455_24861" x1="9.40925" y1="8.52575" x2="72.6322" y2="90.3459" gradientUnits="userSpaceOnUse">
<stop stop-color="#3E7522"/>
<stop offset="0.9964" stop-color="#65AC33"/>
</linearGradient>
</defs>
</svg>
