<svg viewBox="0 0 151 220" fill="none" xmlns="http://www.w3.org/2000/svg">
<path d="M22.3377 23.1787L138.107 28.2627C144.472 28.5425 149.546 33.813 149.592 40.2962L150.883 210.398C150.929 215.435 146.824 219.54 141.797 219.4L9.00803 216.041C4.30346 215.901 0.613617 211.937 0.844234 207.18L8.17785 36.3783C8.45459 28.7291 14.8196 22.8523 22.3377 23.1787Z" fill="url(#paint0_linear_64_4323)"/>
<path d="M28.5178 214.129C28.5178 214.129 28.4717 214.129 28.5178 214.129L13.6662 213.289C8.63872 213.01 4.71824 208.625 4.90274 203.541L5.87132 180.874C5.87132 180.594 6.10193 180.407 6.33255 180.407C6.60929 180.407 6.79378 180.64 6.79378 180.874L5.8252 203.541C5.64071 208.112 9.14607 212.077 13.7123 212.357L28.5639 213.196C28.8407 213.196 29.0252 213.429 28.9791 213.709C28.9329 213.942 28.7484 214.129 28.5178 214.129Z" fill="white"/>
<path d="M6.65557 174.297C6.60945 174.297 6.60945 174.297 6.65557 174.297C6.37883 174.297 6.19434 174.064 6.19434 173.831L6.33273 170.146C6.33273 169.866 6.56334 169.68 6.79396 169.68C7.0707 169.68 7.25519 169.913 7.25519 170.146L7.1168 173.831C7.07068 174.111 6.88619 174.297 6.65557 174.297Z" fill="white"/>
<path d="M22.7526 21.8261C38.4806 24.6712 92.5372 33.7663 137.646 32.2738C139.721 32.2272 141.428 33.8596 141.428 35.9118L143.088 206.76C143.088 209.092 141.243 211.004 138.937 211.051C119.98 211.331 41.9399 212.31 14.312 208.159C12.6516 207.926 11.4063 206.433 11.4524 204.707L18.0942 25.6041C18.1864 23.1787 20.3542 21.4063 22.7526 21.8261Z" fill="url(#paint1_linear_64_4323)"/>
<path opacity="0.6" d="M24.2287 26.3038C39.3572 29.0557 91.3842 37.8243 134.786 36.3318C136.769 36.2851 138.43 37.8709 138.43 39.8765L139.998 204.288C139.998 206.527 138.246 208.392 136.032 208.439C117.813 208.719 42.678 209.652 16.111 205.64C14.4967 205.407 13.2975 203.961 13.3897 202.282L19.7548 29.9419C19.847 27.6098 21.9687 25.8841 24.2287 26.3038Z" fill="white"/>
<g opacity="0.6">
<path d="M127.913 50.4642C128.928 50.5108 129.758 49.9978 129.758 49.3448C129.758 48.6918 128.928 48.1321 127.913 48.0388L87.1863 45.5202C86.1716 45.4735 85.572 46.1265 85.8487 47.0127C86.1255 47.8989 87.1402 48.6452 88.1549 48.6918L127.913 50.4642Z" fill="white"/>
</g>
<g opacity="0.6">
<path d="M86.9558 52.0966C85.9411 52.0499 85.3415 52.7029 85.6183 53.5891C85.895 54.4753 86.9097 55.2216 87.9244 55.2682L127.683 56.9939C128.697 57.0406 129.528 56.5275 129.528 55.8746C129.528 55.2216 128.697 54.6619 127.683 54.5686L86.9558 52.0966Z" fill="white"/>
</g>
<g opacity="0.6">
<path d="M86.6336 58.7196C85.6189 58.673 85.0193 59.326 85.296 60.2122C85.5727 61.0983 86.5874 61.8446 87.6022 61.8913L127.36 63.617C128.375 63.6636 129.205 63.1506 129.205 62.4976C129.205 61.8446 128.375 61.2849 127.36 61.1916L86.6336 58.7196Z" fill="white"/>
</g>
<g opacity="0.6">
<path d="M130.82 77.5629C131.834 77.6095 132.665 77.0965 132.618 76.4435C132.618 75.7905 131.742 75.2308 130.727 75.1842L33.9147 70.1469C32.9 70.1002 32.5771 70.7532 33.1767 71.5461L33.3612 71.7793C33.9608 72.6189 35.2984 73.3185 36.3131 73.3651L130.82 77.5629Z" fill="white"/>
</g>
<g opacity="0.6">
<path d="M33.6832 76.7233C32.6685 76.6767 32.3457 77.3296 32.9453 78.1225L33.1298 78.3558C33.7294 79.1953 35.067 79.8949 36.0356 79.9416L130.542 84.0927C131.557 84.1393 132.387 83.6263 132.341 82.9733C132.341 82.3203 131.465 81.7606 130.45 81.7139L33.6832 76.7233Z" fill="white"/>
</g>
<path d="M48.7659 110.119C48.7659 110.119 48.7197 110.119 48.7659 110.119L35.7129 109.839C33.8219 109.792 32.2999 108.486 32.1154 106.76L31.1006 95.7064C31.0545 95.0534 31.239 94.4004 31.7002 93.8874C32.2076 93.3277 32.9456 92.9546 33.7297 92.9079C34.8366 92.8613 36.3587 92.7213 38.0191 92.6281C41.6629 92.3482 45.7678 92.0684 48.1662 92.0217H48.2123C49.9189 92.0217 51.3949 93.1411 51.81 94.6803C52.4557 97.2456 52.3635 102.05 52.179 107.18C52.0867 108.813 50.5647 110.165 48.7659 110.119ZM33.7758 93.9807C33.2684 94.0273 32.8072 94.2139 32.4843 94.587C32.2537 94.8669 32.1154 95.24 32.1615 95.6131L33.1762 106.667C33.2684 107.833 34.3754 108.766 35.7129 108.766L48.7659 109.046C48.7659 109.046 48.7658 109.046 48.812 109.046C50.0573 109.046 51.1181 108.206 51.1181 107.087C51.3026 102.05 51.3949 97.3389 50.7953 94.9135C50.5186 93.8407 49.4116 93.0478 48.1662 93.0945C45.7678 93.0945 41.5245 93.421 38.0652 93.6542C36.4048 93.7941 34.8828 93.8874 33.7758 93.9807Z" fill="white"/>
<path opacity="0.6" d="M35.1603 95.1C37.8815 94.9601 43.8776 94.4004 46.6911 94.4004C47.8903 94.4004 48.9511 95.1466 49.1817 96.1728C49.6891 98.225 49.5968 102.283 49.4585 106.014C49.4124 107.134 48.3976 108.02 47.1523 107.973L36.7285 107.74C35.437 107.693 34.3762 106.807 34.2839 105.688L33.4537 96.8257C33.3614 95.9396 34.1456 95.1467 35.1603 95.1Z" fill="white"/>
<g opacity="0.6">
<path d="M61.1277 98.7847C60.1129 98.738 59.4672 99.5309 59.744 100.51L60.482 103.495C60.7126 104.475 61.7734 105.314 62.7881 105.314L126.899 106.014C127.914 106.014 128.744 105.175 128.744 104.148V102.982C128.744 101.956 127.914 101.07 126.899 101.07L61.1277 98.7847Z" fill="white"/>
</g>
<path d="M35.7134 96.8258C36.682 96.2661 37.9274 96.6392 38.4808 97.6187L41.0176 102.33C41.2482 102.796 41.9401 102.796 42.1707 102.283L48.7202 88.0106C49.0431 87.3109 50.1039 87.5441 50.0578 88.3371C49.9655 92.7214 48.7202 101.07 41.6633 107.973C41.6633 107.973 37.8351 106.434 34.8371 99.531C34.3758 98.5515 34.7448 97.3855 35.7134 96.8258Z" fill="url(#paint2_linear_64_4323)"/>
<path d="M48.4435 138.383L35.3907 138.103C33.4996 138.057 31.9775 136.751 31.793 135.025L30.7784 123.971C30.7322 123.318 30.9167 122.665 31.3779 122.152C31.8853 121.592 32.6233 121.219 33.4074 121.173C34.5143 121.126 36.0364 120.986 37.6968 120.893C41.3406 120.613 45.4456 120.333 47.844 120.286H47.8901C49.5966 120.286 51.0726 121.406 51.4877 122.945C52.1334 125.51 52.0412 130.314 51.8567 135.445C51.8105 137.077 50.2885 138.43 48.4435 138.383ZM33.4535 122.245C32.9461 122.292 32.4849 122.479 32.1621 122.852C31.9314 123.132 31.793 123.505 31.8392 123.878L32.8539 134.932C32.9462 136.098 34.0531 137.031 35.3907 137.031L48.4435 137.311C48.4435 137.311 48.4436 137.311 48.4897 137.311C49.735 137.311 50.7959 136.471 50.7959 135.352C50.9804 130.314 51.0726 125.604 50.473 123.178C50.1962 122.105 49.0893 121.312 47.844 121.359C45.4456 121.359 41.2022 121.686 37.743 121.919C36.0825 122.059 34.5604 122.152 33.4535 122.245Z" fill="white"/>
<path opacity="0.6" d="M34.8365 123.365C37.5578 123.225 43.5538 122.665 46.3673 122.665C47.5665 122.665 48.6274 123.411 48.858 124.437C49.3654 126.49 49.2731 130.547 49.1347 134.279C49.0886 135.398 48.0739 136.284 46.8286 136.238L36.4047 136.005C35.1133 135.958 34.0525 135.072 33.9602 133.952L33.13 125.09C33.0839 124.204 33.8218 123.411 34.8365 123.365Z" fill="white"/>
<g opacity="0.6">
<path d="M60.8044 127.049C59.7897 127.003 59.144 127.796 59.4207 128.775L60.1587 131.76C60.3893 132.74 61.4501 133.579 62.4648 133.579L126.576 134.279C127.591 134.279 128.421 133.439 128.421 132.413V131.247C128.421 130.221 127.591 129.335 126.576 129.335L60.8044 127.049Z" fill="white"/>
</g>
<path d="M46.967 165.529C46.9209 165.529 46.9209 165.529 46.967 165.529L33.9141 165.249C32.0231 165.202 30.501 163.896 30.3165 162.171L29.3018 151.117C29.2557 150.464 29.4402 149.811 29.9014 149.298C30.4088 148.738 31.1468 148.365 31.9309 148.318C33.0378 148.271 34.5598 148.132 36.2203 148.038C39.6795 147.758 43.969 147.479 46.4136 147.432C48.1201 147.432 49.6883 148.505 50.0573 150.09C50.703 152.656 50.6108 157.46 50.4263 162.59C50.2879 164.176 48.7658 165.529 46.967 165.529ZM31.9309 149.344C31.4235 149.391 30.9622 149.577 30.6394 149.951C30.4088 150.23 30.2704 150.603 30.3165 150.977L31.3312 162.031C31.4235 163.197 32.5304 164.13 33.868 164.13L46.9209 164.409C48.1662 164.409 49.2271 163.57 49.2732 162.45C49.4577 157.413 49.55 152.702 48.9504 150.277C48.6736 149.204 47.5666 148.411 46.3213 148.458C43.9229 148.458 39.6795 148.784 36.2203 149.018C34.5598 149.158 33.0378 149.298 31.9309 149.344Z" fill="white"/>
<path opacity="0.6" d="M33.3151 150.464C36.0364 150.324 42.0324 149.764 44.8459 149.764C46.0451 149.764 47.106 150.51 47.3366 151.536C47.8439 153.589 47.7517 157.646 47.6133 161.378C47.5672 162.497 46.5525 163.383 45.3071 163.337L34.8833 163.103C33.5918 163.057 32.531 162.171 32.4387 161.051L31.6085 152.189C31.5624 151.35 32.3004 150.51 33.3151 150.464Z" fill="white"/>
<g opacity="0.6">
<path d="M59.2829 154.195C58.2682 154.148 57.6225 154.941 57.8992 155.921L58.6373 158.906C58.8679 159.885 59.9287 160.725 60.9434 160.725L125.055 161.424C126.069 161.424 126.9 160.585 126.9 159.559V158.393C126.9 157.366 126.069 156.48 125.055 156.48L59.2829 154.195Z" fill="white"/>
</g>
<path d="M45.1691 193.467C45.1691 193.467 45.123 193.467 45.1691 193.467L32.1163 193.187C30.2252 193.141 28.7031 191.835 28.5186 190.109L27.5039 179.055C27.4578 178.402 27.6423 177.749 28.1035 177.236C28.6109 176.676 29.3489 176.303 30.1329 176.256C31.2399 176.21 32.762 176.07 34.4224 175.976C38.0662 175.697 42.1711 175.417 44.5696 175.37C46.3222 175.417 47.8443 176.443 48.2132 178.029C48.859 180.594 48.7668 185.398 48.5823 190.529C48.49 192.161 46.9679 193.514 45.1691 193.467ZM30.1791 177.329C29.6717 177.376 29.2105 177.562 28.8876 177.935C28.657 178.215 28.5186 178.588 28.5647 178.962L29.5795 190.016C29.6717 191.182 30.7787 192.114 32.1163 192.114L45.1691 192.394C45.1691 192.394 45.1691 192.394 45.2152 192.394C46.4606 192.394 47.5214 191.555 47.5214 190.435C47.7059 185.398 47.7982 180.687 47.1986 178.262C46.9218 177.189 45.8149 176.443 44.5696 176.443C42.1711 176.443 37.9278 176.769 34.4685 177.003C32.8081 177.142 31.286 177.236 30.1791 177.329Z" fill="white"/>
<path opacity="0.6" d="M31.5626 178.448C34.2838 178.308 40.2799 177.749 43.0934 177.749C44.2926 177.749 45.3534 178.495 45.584 179.521C46.0914 181.573 45.9991 185.631 45.8608 189.362C45.8146 190.482 44.7999 191.368 43.5546 191.321L33.1308 191.088C31.8393 191.042 30.7784 190.155 30.6862 189.036L29.856 180.174C29.7638 179.288 30.5478 178.495 31.5626 178.448Z" fill="white"/>
<g opacity="0.6">
<path d="M57.4831 182.133C56.4684 182.086 55.8227 182.879 56.0994 183.859L56.8374 186.844C57.068 187.823 58.1288 188.663 59.1436 188.663L123.255 189.362C124.27 189.362 125.1 188.523 125.1 187.497V186.331C125.1 185.305 124.27 184.419 123.255 184.419L57.4831 182.133Z" fill="white"/>
</g>
<path d="M35.7134 123.231C36.682 122.671 37.9274 123.045 38.4808 124.024L41.0176 128.735C41.2482 129.201 41.9401 129.201 42.1707 128.688L48.7202 114.416C49.0431 113.716 50.1039 113.949 50.0578 114.742C49.9655 119.127 48.7202 127.475 41.6633 134.378C41.6633 134.378 37.8351 132.839 34.8371 125.936C34.3758 124.957 34.7448 123.791 35.7134 123.231Z" fill="url(#paint3_linear_64_4323)"/>
<path d="M35.7134 150.231C36.682 149.671 37.9274 150.045 38.4808 151.024L41.0176 155.735C41.2482 156.201 41.9401 156.201 42.1707 155.688L48.7202 141.416C49.0431 140.716 50.1039 140.949 50.0578 141.742C49.9655 146.127 48.7202 154.475 41.6633 161.378C41.6633 161.378 37.8351 159.839 34.8371 152.936C34.3758 151.957 34.7448 150.791 35.7134 150.231Z" fill="url(#paint4_linear_64_4323)"/>
<path d="M35.7134 178.231C36.682 177.671 37.9274 178.045 38.4808 179.024L41.0176 183.735C41.2482 184.201 41.9401 184.201 42.1707 183.688L48.7202 169.416C49.0431 168.716 50.1039 168.949 50.0578 169.742C49.9655 174.127 48.7202 182.475 41.6633 189.378C41.6633 189.378 37.8351 187.839 34.8371 180.936C34.3758 179.957 34.7448 178.791 35.7134 178.231Z" fill="url(#paint5_linear_64_4323)"/>
<path d="M88.3863 2.88977C84.3274 -0.235213 80.6837 -0.328496 78.1008 0.324485C75.7485 0.930825 74.1342 3.12298 74.2264 5.59498L74.826 17.8151L87.9251 19.5874C87.8789 19.5874 96.3195 8.99981 88.3863 2.88977ZM82.1597 12.4513C80.3608 12.358 78.931 10.8188 79.0232 8.99981C79.1155 7.18079 80.6376 5.7349 82.4364 5.82819C84.2352 5.92147 85.665 7.46064 85.5727 9.27965C85.5266 11.1453 84.0046 12.5446 82.1597 12.4513Z" fill="url(#paint6_linear_64_4323)"/>
<path d="M76.1179 13.011C75.8872 12.9177 75.7489 12.6845 75.7028 12.4513L75.6105 10.4924C75.6105 10.1192 75.8873 9.83937 76.2101 9.79273C76.5791 9.79273 76.8559 10.0726 76.902 10.3991L76.9942 12.358C76.9942 12.7311 76.7175 13.011 76.3946 13.0576C76.3024 13.1043 76.2101 13.0576 76.1179 13.011ZM75.9334 9.23303C75.7028 9.13975 75.5644 8.90654 75.5183 8.67333L75.426 7.1808C75.2876 4.66216 76.9481 2.42337 79.3465 1.81703C81.0069 1.39725 82.6674 1.39725 84.3278 1.81703C84.6507 1.91031 84.8813 2.28344 84.7891 2.60993C84.6968 2.98306 84.3279 3.16963 84.005 3.07635C82.5752 2.70321 81.0992 2.70321 79.6694 3.07635C77.8706 3.54276 76.6252 5.22186 76.7175 7.08752L76.8097 8.58005C76.8097 8.95318 76.533 9.23303 76.2101 9.27967C76.1179 9.27967 76.0257 9.23303 75.9334 9.23303Z" fill="white"/>
<path d="M56.5615 24.9047L56.8383 18.7946C56.9305 16.6958 58.7293 15.0633 60.8048 15.2499L102.5 18.5148C104.345 18.6547 105.775 20.1939 105.821 22.0596L105.913 27.983L56.5615 24.9047Z" fill="url(#paint7_linear_64_4323)"/>
<path d="M72.4739 18.1882C72.4278 18.1882 72.4278 18.1882 72.4739 18.1882L70.6751 18.0949C70.3984 18.0949 70.2139 17.8617 70.2139 17.6285C70.2139 17.3487 70.4445 17.1621 70.6751 17.1621L72.4739 17.2554C72.7507 17.2554 72.9352 17.4886 72.9352 17.7218C72.889 18.0017 72.7045 18.1882 72.4739 18.1882Z" fill="white"/>
<path d="M58.6368 23.3655C58.4062 23.2723 58.2217 22.9924 58.2217 22.7126L58.3139 20.2406C58.36 19.2145 58.7751 18.2816 59.5131 17.582C60.2511 16.8824 61.2197 16.5559 62.2344 16.6025L68.83 16.8824C69.199 16.8824 69.4757 17.2089 69.4296 17.582C69.4296 17.9551 69.1067 18.235 68.7378 18.1883L62.1422 17.9085C60.8046 17.8618 59.6054 18.9346 59.5593 20.2872L59.467 22.7592C59.467 23.1323 59.1441 23.4122 58.7751 23.3655C58.7751 23.4122 58.729 23.4122 58.6368 23.3655Z" fill="white"/>
<path d="M43.554 22.106L116.567 25.3242C119.196 25.4175 121.364 27.4697 121.687 30.0816L121.733 30.4548C122.102 33.3466 119.796 35.8652 116.936 35.7253L42.032 32.4604C40.3254 32.3671 38.9878 30.8746 39.1723 29.1488L39.4952 25.744C39.6336 23.5985 41.4324 22.0127 43.554 22.106Z" fill="url(#paint8_linear_64_4323)"/>
<defs>
<linearGradient id="paint0_linear_64_4323" x1="153.767" y1="32.5292" x2="-42.7408" y2="266.054" gradientUnits="userSpaceOnUse">
<stop stop-color="#25491B"/>
<stop offset="1" stop-color="#150E42"/>
</linearGradient>
<linearGradient id="paint1_linear_64_4323" x1="102.466" y1="-8.22" x2="13.4025" y2="486.951" gradientUnits="userSpaceOnUse">
<stop stop-color="#61FF53"/>
<stop offset="1" stop-color="#47822C"/>
</linearGradient>
<linearGradient id="paint2_linear_64_4323" x1="74.5746" y1="42.5818" x2="5.62269" y2="156.078" gradientUnits="userSpaceOnUse">
<stop stop-color="#FFD600"/>
<stop offset="1" stop-color="#EF4949"/>
</linearGradient>
<linearGradient id="paint3_linear_64_4323" x1="74.5746" y1="68.9871" x2="5.62269" y2="182.483" gradientUnits="userSpaceOnUse">
<stop stop-color="#FFD600"/>
<stop offset="1" stop-color="#EF4949"/>
</linearGradient>
<linearGradient id="paint4_linear_64_4323" x1="74.5746" y1="95.9871" x2="5.62269" y2="209.483" gradientUnits="userSpaceOnUse">
<stop stop-color="#FFD600"/>
<stop offset="1" stop-color="#EF4949"/>
</linearGradient>
<linearGradient id="paint5_linear_64_4323" x1="74.5746" y1="123.987" x2="5.62269" y2="237.483" gradientUnits="userSpaceOnUse">
<stop stop-color="#FFD600"/>
<stop offset="1" stop-color="#EF4949"/>
</linearGradient>
<linearGradient id="paint6_linear_64_4323" x1="109.133" y1="-5.53943" x2="33.1686" y2="38.1083" gradientUnits="userSpaceOnUse">
<stop stop-color="#FF9703"/>
<stop offset="1" stop-color="#25471E"/>
</linearGradient>
<linearGradient id="paint7_linear_64_4323" x1="107.682" y1="-9.27342" x2="50.6563" y2="58.5963" gradientUnits="userSpaceOnUse">
<stop stop-color="#EFBD0C"/>
<stop offset="1" stop-color="#FF7B01"/>
</linearGradient>
<linearGradient id="paint8_linear_64_4323" x1="80.2318" y1="39.5315" x2="85.669" y2="-171.587" gradientUnits="userSpaceOnUse">
<stop stop-color="#FF9A02"/>
<stop offset="1" stop-color="#FF3D00"/>
</linearGradient>
</defs>
</svg>
