<svg width="21" height="21" viewBox="0 0 21 21" fill="none" xmlns="http://www.w3.org/2000/svg">
<path d="M15.09 5.91928H15.9636M5.04331 1.48926L15.5268 1.48926C17.4567 1.48926 19.0212 3.07597 19.0212 5.03327L19.0212 15.6653C19.0212 17.6226 17.4567 19.2093 15.5268 19.2093L5.04331 19.2093C3.11336 19.2093 1.54883 17.6226 1.54883 15.6653L1.54883 5.03327C1.54883 3.07597 3.11336 1.48926 5.04331 1.48926ZM10.285 13.8933C8.35509 13.8933 6.79055 12.3066 6.79055 10.3493C6.79055 8.39199 8.35509 6.80528 10.285 6.80528C12.215 6.80528 13.7795 8.39199 13.7795 10.3493C13.7795 12.3066 12.215 13.8933 10.285 13.8933Z" stroke="white" stroke-width="2"/>
</svg>
