<svg viewBox="0 0 258 52" fill="none" xmlns="http://www.w3.org/2000/svg">
<g clip-path="url(#clip0_118_10896)">
<path d="M12.3427 52.6585V15.7794L34.3387 28.8664L17.2292 38.3839V52.6585L38.0052 40.7625V17.9357L16.0092 5.07422L0.123047 13.4008V44.1668L12.3427 52.6585Z" fill="#3E8F35"/>
<path d="M17.2285 33.6224V44.3308L38.0045 32.4601V17.9346C38.0045 17.9346 34.338 24.1049 28.2184 27.6744C22.0988 31.2438 17.2285 33.6224 17.2285 33.6224Z" fill="#E88A01"/>
<path d="M54.2603 31.6927V42.49H47.4785V15.2554H60.1124C62.4415 15.2554 64.3118 15.5115 65.7232 16.0239C67.1761 16.5675 68.4072 17.5575 69.2299 18.8439C70.1511 20.1957 70.6351 21.7852 70.6195 23.4073C70.6195 26.6783 68.9558 29.024 65.6286 30.4446L70.9359 42.4804H63.4821L59.0686 31.6831L54.2603 31.6927ZM54.2603 20.1046V27.0435H58.3868C59.3734 27.0814 60.3608 26.9906 61.3227 26.7736C61.9835 26.5556 62.5552 26.1371 62.9537 25.5795C63.4273 24.9681 63.6786 24.2207 63.6681 23.455C63.6751 22.717 63.423 21.9989 62.9537 21.4194C62.5751 20.8919 62.0263 20.5029 61.3944 20.3142C60.3523 20.1369 59.2939 20.0667 58.2368 20.1046H54.2603Z" fill="#333333"/>
<path d="M96.3504 20.4412H82.6661V26.0273H93.4308V31.1528H82.6661V37.0976H96.3504V42.4804H75.8223V15.2554H96.3504V20.4412Z" fill="#333333"/>
<path d="M123.582 25.385L116.526 25.7915C116.428 21.949 114.846 20.0277 111.779 20.0277C108.263 20.0277 106.505 22.9916 106.505 28.9196C106.505 32.3366 106.983 34.6527 107.94 35.868C108.897 37.0832 110.233 37.6918 111.949 37.694C114.733 37.694 116.434 35.9791 117.054 32.5494L123.578 32.9273C123.159 36.1855 121.878 38.6615 119.736 40.3552C117.593 42.0489 114.972 42.8957 111.871 42.8957C108.067 42.8957 104.975 41.653 102.593 39.1675C100.212 36.682 99.0281 33.2448 99.0411 28.8561C99.0411 24.7467 100.193 21.3826 102.496 18.7638C104.799 16.1449 107.943 14.8354 111.929 14.8354C118.825 14.8354 122.709 18.352 123.582 25.385Z" fill="#333333"/>
<path d="M148.2 15.2554L139.167 31.0131V42.4804H132.451V31.0131L123.415 15.2554H131.228L136.708 25.5636L142.162 15.2554H148.2Z" fill="#333333"/>
<path d="M172.112 25.385L165.043 25.7915C164.945 21.949 163.363 20.0277 160.297 20.0277C156.78 20.0277 155.022 22.9916 155.022 28.9196C155.022 32.3366 155.499 34.6527 156.454 35.868C157.409 37.0832 158.745 37.6918 160.463 37.694C163.249 37.694 164.951 35.9791 165.571 32.5494L172.095 32.9273C171.673 36.1855 170.393 38.6615 168.253 40.3552C166.113 42.0489 163.491 42.8957 160.388 42.8957C156.58 42.8957 153.488 41.653 151.111 39.1675C148.734 36.682 147.544 33.2448 147.542 28.8561C147.542 24.7467 148.693 21.3826 150.996 18.7638C153.299 16.1449 156.445 14.8354 160.434 14.8354C167.349 14.8354 171.242 18.352 172.112 25.385Z" fill="#333333"/>
<path d="M182.799 37.0976H194.216V42.4804H175.948V15.2554H182.769L182.799 37.0976Z" fill="#333333"/>
<path d="M218.216 20.4412H204.515V26.0273H215.28V31.1528H204.515V37.0976H218.216V42.4804H197.685V15.2554H218.216V20.4412Z" fill="#333333"/>
<path d="M244.11 15.2554L236.255 27.8977L245.141 42.4804H237.348L231.581 32.6041L225.81 42.4804H219.43L228.335 27.9708L220.441 15.2681H228.27L232.925 23.5248L237.818 15.2681L244.11 15.2554Z" fill="#333333"/>
<path d="M252.131 16.3048C255.059 16.3048 257.432 13.9944 257.432 11.1444C257.432 8.29431 255.059 5.98389 252.131 5.98389C249.203 5.98389 246.83 8.29431 246.83 11.1444C246.83 13.9944 249.203 16.3048 252.131 16.3048Z" stroke="#333333" stroke-width="0.25" stroke-miterlimit="10"/>
<path d="M249.591 14.4801V7.81117H252.484C252.767 7.80775 253.046 7.86979 253.3 7.99218C253.546 8.11053 253.768 8.27323 253.952 8.47171C254.132 8.67013 254.275 8.89808 254.373 9.14495C254.47 9.38693 254.521 9.64415 254.523 9.90394C254.523 10.142 254.486 10.3787 254.412 10.6058C254.341 10.82 254.236 11.0223 254.102 11.206C253.973 11.3832 253.812 11.536 253.626 11.6569C253.436 11.7809 253.221 11.8662 252.996 11.9078L254.676 14.4801H253.913L252.302 12.0189H250.266V14.4801H249.591ZM250.266 11.4378H252.504C252.694 11.4387 252.882 11.3952 253.052 11.3108C253.214 11.2264 253.357 11.1095 253.469 10.9678C253.587 10.8204 253.678 10.6552 253.74 10.4787C253.806 10.294 253.839 10.0996 253.838 9.90394C253.838 9.51356 253.691 9.13662 253.427 8.84326C253.301 8.71059 253.151 8.60275 252.983 8.5257C252.817 8.44412 252.634 8.40169 252.448 8.40185H250.266V11.4378Z" fill="#333333"/>
</g>
<defs>
<clipPath id="clip0_118_10896">
<rect width="257.451" height="51.4762" fill="white" transform="translate(0 0.523926)"/>
</clipPath>
</defs>
</svg>
