<svg viewBox="0 0 258 52" fill="none" xmlns="http://www.w3.org/2000/svg">
<g clip-path="url(#clip0_118_6042)">
<path d="M12.3427 52.6586V15.7795L34.3387 28.8664L17.2292 38.3839V52.6586L38.0052 40.7625V17.9358L16.0092 5.07428L0.123047 13.4009V44.1668L12.3427 52.6586Z" fill="#3E8F35"/>
<path d="M17.2285 33.6225V44.3309L38.0045 32.4602V17.9346C38.0045 17.9346 34.338 24.105 28.2184 27.6744C22.0988 31.2439 17.2285 33.6225 17.2285 33.6225Z" fill="#E88A01"/>
<path d="M54.2603 31.6923V42.4896H47.4785V15.255H60.1124C62.4415 15.255 64.3118 15.5112 65.7232 16.0235C67.1761 16.5671 68.4072 17.5572 69.2299 18.8435C70.1511 20.1953 70.6351 21.7848 70.6195 23.407C70.6195 26.6779 68.9558 29.0237 65.6286 30.4443L70.9359 42.4801H63.4821L59.0686 31.6828L54.2603 31.6923ZM54.2603 20.1043V27.0431H58.3868C59.3734 27.0811 60.3608 26.9903 61.3227 26.7732C61.9835 26.5552 62.5552 26.1367 62.9537 25.5791C63.4273 24.9677 63.6786 24.2203 63.6681 23.4546C63.6751 22.7167 63.423 21.9985 62.9537 21.419C62.5751 20.8916 62.0263 20.5026 61.3944 20.3139C60.3523 20.1365 59.2939 20.0663 58.2368 20.1043H54.2603Z" fill="#F2F2F2"/>
<path d="M96.3504 20.4409H82.6661V26.0269H93.4308V31.1524H82.6661V37.0973H96.3504V42.48H75.8223V15.255H96.3504V20.4409Z" fill="#F2F2F2"/>
<path d="M123.582 25.385L116.526 25.7915C116.428 21.9489 114.846 20.0276 111.779 20.0276C108.263 20.0276 106.505 22.9916 106.505 28.9195C106.505 32.3365 106.983 34.6527 107.94 35.8679C108.897 37.0831 110.233 37.6918 111.949 37.6939C114.733 37.6939 116.434 35.979 117.054 32.5493L123.578 32.9272C123.159 36.1855 121.878 38.6614 119.736 40.3551C117.593 42.0488 114.972 42.8957 111.871 42.8957C108.067 42.8957 104.975 41.6529 102.593 39.1674C100.212 36.6819 99.0281 33.2448 99.0411 28.856C99.0411 24.7467 100.193 21.3826 102.496 18.7637C104.799 16.1448 107.943 14.8354 111.929 14.8354C118.825 14.8354 122.709 18.3519 123.582 25.385Z" fill="#F2F2F2"/>
<path d="M148.2 15.255L139.167 31.0127V42.48H132.451V31.0127L123.415 15.255H131.228L136.708 25.5632L142.162 15.255H148.2Z" fill="#F2F2F2"/>
<path d="M172.112 25.385L165.043 25.7915C164.945 21.9489 163.363 20.0276 160.297 20.0276C156.78 20.0276 155.022 22.9916 155.022 28.9195C155.022 32.3365 155.499 34.6527 156.454 35.8679C157.409 37.0831 158.745 37.6918 160.463 37.6939C163.249 37.6939 164.951 35.979 165.571 32.5493L172.095 32.9272C171.673 36.1855 170.393 38.6614 168.253 40.3551C166.113 42.0488 163.491 42.8957 160.388 42.8957C156.58 42.8957 153.488 41.6529 151.111 39.1674C148.734 36.6819 147.544 33.2448 147.542 28.856C147.542 24.7467 148.693 21.3826 150.996 18.7637C153.299 16.1448 156.445 14.8354 160.434 14.8354C167.349 14.8354 171.242 18.3519 172.112 25.385Z" fill="#F2F2F2"/>
<path d="M182.799 37.0973H194.216V42.48H175.948V15.255H182.769L182.799 37.0973Z" fill="#F2F2F2"/>
<path d="M218.216 20.4409H204.515V26.0269H215.28V31.1524H204.515V37.0973H218.216V42.48H197.685V15.255H218.216V20.4409Z" fill="#F2F2F2"/>
<path d="M244.11 15.255L236.255 27.8974L245.141 42.48H237.348L231.581 32.6037L225.81 42.48H219.43L228.335 27.9704L220.441 15.2677H228.27L232.925 23.5245L237.818 15.2677L244.11 15.255Z" fill="#F2F2F2"/>
<path d="M252.131 16.3045C255.059 16.3045 257.432 13.994 257.432 11.144C257.432 8.29394 255.059 5.98352 252.131 5.98352C249.203 5.98352 246.83 8.29394 246.83 11.144C246.83 13.994 249.203 16.3045 252.131 16.3045Z" stroke="#F2F2F2" stroke-width="0.25" stroke-miterlimit="10"/>
<path d="M249.591 14.4798V7.81086H252.484C252.767 7.80745 253.046 7.86949 253.3 7.99188C253.546 8.11022 253.768 8.27292 253.952 8.4714C254.132 8.66983 254.275 8.89778 254.373 9.14465C254.47 9.38662 254.521 9.64385 254.523 9.90363C254.523 10.1417 254.486 10.3784 254.412 10.6055C254.341 10.8197 254.236 11.022 254.102 11.2057C253.973 11.3829 253.812 11.5357 253.626 11.6566C253.436 11.7806 253.221 11.8659 252.996 11.9075L254.676 14.4798H253.913L252.302 12.0186H250.266V14.4798H249.591ZM250.266 11.4375H252.504C252.694 11.4384 252.882 11.3949 253.052 11.3105C253.214 11.2261 253.357 11.1092 253.469 10.9675C253.587 10.8201 253.678 10.6549 253.74 10.4784C253.806 10.2937 253.839 10.0993 253.838 9.90363C253.838 9.51326 253.691 9.13632 253.427 8.84296C253.301 8.71028 253.151 8.60245 252.983 8.52539C252.817 8.44381 252.634 8.40138 252.448 8.40154H250.266V11.4375Z" fill="#F2F2F2"/>
</g>
<defs>
<clipPath id="clip0_118_6042">
<rect width="257.451" height="51.4762" fill="white" transform="translate(0 0.523804)"/>
</clipPath>
</defs>
</svg>
