<svg  viewBox="0 0 300 234" fill="none" xmlns="http://www.w3.org/2000/svg">
<path d="M133.587 220.174C178.646 220.174 215.174 183.646 215.174 138.587C215.174 93.5278 178.646 57 133.587 57C88.5278 57 52 93.5278 52 138.587C52 183.646 88.5278 220.174 133.587 220.174Z" fill="url(#paint0_linear_64_4292)"/>
<path d="M133.587 217.528C177.185 217.528 212.528 182.185 212.528 138.587C212.528 94.9894 177.185 59.6462 133.587 59.6462C89.9887 59.6462 54.6455 94.9894 54.6455 138.587C54.6455 182.185 89.9887 217.528 133.587 217.528Z" fill="url(#paint1_linear_64_4292)"/>
<path d="M68.6107 107.275C68.3167 107.275 68.1698 107.275 68.0228 107.128C67.2878 106.834 66.9937 105.805 67.4347 105.217C80.2241 80.0795 105.656 64.3501 133.88 64.3501C138.438 64.3501 142.848 64.7911 147.258 65.5261C147.993 65.6731 148.581 66.4082 148.434 67.2902C148.287 68.0252 147.552 68.6132 146.67 68.4662C142.407 67.7312 138.144 67.2902 133.733 67.2902C106.685 67.2902 82.135 82.2845 69.9337 106.54C69.6397 106.981 69.0517 107.275 68.6107 107.275Z" fill="white"/>
<path opacity="0.78" d="M200.349 156.105C208.993 120.274 186.953 84.2201 151.122 75.5766C115.291 66.9331 79.2374 88.9729 70.5938 124.804C61.9503 160.635 83.99 196.689 119.821 205.332C155.652 213.976 191.706 191.936 200.349 156.105Z" fill="white"/>
<path d="M128.737 189.892V182.688C121.093 182.394 113.742 180.63 108.303 178.278C106.392 177.396 105.363 175.338 105.951 173.28L107.862 166.518C108.597 164.019 111.243 162.696 113.596 163.725C118.888 165.93 125.356 167.694 132.412 167.694C139.762 167.694 145.201 165.195 145.201 160.197C145.201 155.64 140.938 152.847 130.795 150.201C116.389 146.231 105.951 139.91 105.951 127.268C105.951 115.802 114.33 106.981 128.884 104.629V97.4262C128.884 95.0742 130.795 93.1631 133.147 93.1631H137.41C139.762 93.1631 141.673 95.0742 141.673 97.4262V103.894C148.729 104.188 153.728 105.364 157.844 106.834C159.902 107.569 161.078 109.774 160.49 111.98L158.726 118.301C158.138 120.653 155.491 121.976 153.139 121.094C149.464 119.624 144.172 118.154 137.263 118.154C128.59 118.154 126.091 121.682 126.091 124.916C126.091 128.885 131.236 131.531 142.555 135.059C158.579 139.91 165.341 146.525 165.341 158.58C165.341 169.605 157.109 179.454 141.379 181.953V190.039C141.379 192.391 139.468 194.302 137.116 194.302H132.853C130.648 194.155 128.737 192.244 128.737 189.892Z" fill="url(#paint2_linear_64_4292)"/>
<path d="M248.831 220.629C262.334 227.746 279.05 222.569 286.167 209.066C293.285 195.563 288.107 178.847 274.604 171.73C261.101 164.613 244.385 169.79 237.268 183.293C230.151 196.796 235.328 213.512 248.831 220.629Z" fill="url(#paint3_linear_64_4292)"/>
<path d="M249.249 219.836C262.314 226.723 278.488 221.714 285.374 208.648C292.261 195.583 287.252 179.409 274.186 172.523C261.121 165.636 244.947 170.646 238.061 183.711C231.174 196.776 236.184 212.95 249.249 219.836Z" fill="url(#paint4_linear_64_4292)"/>
<path d="M247.191 176.533C247.103 176.487 247.059 176.463 247.038 176.396C246.864 176.192 246.939 175.837 247.164 175.731C254.967 170.217 265.073 169.521 273.531 173.979C274.897 174.698 276.149 175.527 277.354 176.444C277.551 176.604 277.611 176.917 277.428 177.158C277.268 177.356 276.955 177.416 276.714 177.232C275.552 176.339 274.344 175.533 273.023 174.837C264.917 170.564 255.191 171.18 247.704 176.522C247.546 176.608 247.323 176.603 247.191 176.533Z" fill="white"/>
<path opacity="0.78" d="M278.958 211.974C287.207 202.602 286.297 188.316 276.925 180.066C267.552 171.817 253.266 172.727 245.017 182.099C236.767 191.472 237.677 205.758 247.05 214.007C256.422 222.257 270.708 221.347 278.958 211.974Z" fill="white"/>
<path d="M252.16 210.788L253.298 208.63C251.054 207.334 249.129 205.645 247.871 204.081C247.438 203.514 247.454 202.735 247.956 202.211L249.596 200.487C250.211 199.854 251.213 199.875 251.756 200.555C252.993 202.052 254.653 203.602 256.768 204.717C258.97 205.878 260.995 205.988 261.785 204.49C262.504 203.124 261.668 201.614 259.046 199.219C255.356 195.754 253.226 192.211 255.223 188.422C257.034 184.986 260.938 183.666 265.671 185.26L266.809 183.102C267.181 182.397 268.055 182.126 268.76 182.497L270.038 183.171C270.742 183.542 271.013 184.417 270.642 185.122L269.62 187.06C271.688 188.263 273 189.405 274.002 190.495C274.502 191.041 274.506 191.887 273.982 192.455L272.455 194.071C271.907 194.683 270.905 194.661 270.34 194.025C269.471 193.004 268.117 191.728 266.046 190.637C263.447 189.267 262.141 189.929 261.63 190.899C261.003 192.088 262.127 193.694 264.962 196.539C268.998 200.523 269.979 203.574 268.075 207.186C266.334 210.49 262.311 212.142 257.203 210.406L255.926 212.829C255.554 213.534 254.68 213.805 253.975 213.433L252.697 212.76C252.06 212.368 251.789 211.493 252.16 210.788Z" fill="url(#paint5_linear_64_4292)"/>
<path d="M36.5609 55.4006C49.964 52.0061 58.0775 38.389 54.6831 24.9859C51.2886 11.5829 37.6715 3.4693 24.2684 6.86377C10.8653 10.2582 2.75176 23.8753 6.14624 37.2784C9.54071 50.6815 23.1578 58.7951 36.5609 55.4006Z" fill="url(#paint6_linear_64_4292)"/>
<path d="M36.3615 54.6134C49.3299 51.329 57.1803 38.1536 53.8959 25.1852C50.6115 12.2168 37.4361 4.36637 24.4677 7.65075C11.4993 10.9351 3.64885 24.1106 6.93323 37.079C10.2176 50.0474 23.3931 57.8978 36.3615 54.6134Z" fill="url(#paint7_linear_64_4292)"/>
<path d="M8.72811 26.7131C8.64066 26.7352 8.59698 26.7463 8.54218 26.7137C8.30139 26.6816 8.13641 26.3977 8.22329 26.1895C10.1338 17.7488 16.5136 11.1542 24.9092 9.02789C26.2647 8.68458 27.6097 8.48353 28.9769 8.36994C29.2066 8.35829 29.4369 8.53263 29.4596 8.80606C29.4713 9.03577 29.2969 9.26604 29.0235 9.28876C27.7001 9.39128 26.3987 9.58127 25.0869 9.91349C17.0412 11.9512 10.8684 18.2607 9.06629 26.3948C9.01206 26.5481 8.85929 26.6799 8.72811 26.7131Z" fill="white"/>
<path opacity="0.78" d="M51.5932 31.3132C51.465 20.004 42.1931 10.94 30.8839 11.0682C19.5747 11.1964 10.5107 20.4683 10.6389 31.7775C10.7671 43.0867 20.039 52.1507 31.3482 52.0225C42.6574 51.8943 51.7214 42.6224 51.5932 31.3132Z" fill="white"/>
<path d="M32.8373 46.7584L32.2947 44.6158C29.9987 45.1042 27.6795 45.1332 25.8844 44.8433C25.2495 44.7249 24.7884 44.1903 24.8082 43.5338L24.8673 41.3784C24.8977 40.5797 25.5851 39.9868 26.3622 40.1157C28.1025 40.3729 30.1594 40.4104 32.2582 39.8788C34.4446 39.3251 35.8742 38.172 35.4977 36.6852C35.1544 35.3297 33.6759 34.8201 30.4594 34.7971C25.8752 34.7018 22.2944 33.6078 21.342 29.8473C20.4782 26.4366 22.3061 23.1817 26.4579 21.3858L25.9153 19.2432C25.7381 18.5435 26.1626 17.8311 26.8622 17.6539L28.1303 17.3327C28.8299 17.1556 29.5424 17.5801 29.7195 18.2797L30.2068 20.2036C32.3278 19.7595 33.9032 19.7328 35.2383 19.86C35.9058 19.9236 36.4217 20.4909 36.4129 21.1911L36.3644 23.2043C36.3667 23.9482 35.6792 24.5411 34.9132 24.4559C33.7093 24.2955 32.0244 24.2569 29.9692 24.7774C27.3893 25.4308 26.9118 26.6685 27.1554 27.6305C27.4544 28.8111 29.1842 29.2106 32.8169 29.4073C37.9486 29.6432 40.4584 31.1015 41.3665 34.6871C42.197 37.9666 40.4903 41.5165 35.9998 43.4448L36.6089 45.8498C36.7861 46.5494 36.3616 47.2618 35.662 47.439L34.3939 47.7601C33.7269 47.8825 33.0145 47.458 32.8373 46.7584Z" fill="url(#paint8_linear_64_4292)"/>
<path d="M245.976 80.1176C253.747 82.8667 262.274 78.7959 265.024 71.0253C267.773 63.2547 263.702 54.7268 255.931 51.9777C248.161 49.2286 239.633 53.2993 236.884 61.0699C234.135 68.8406 238.205 77.3685 245.976 80.1176Z" fill="url(#paint9_linear_64_4292)"/>
<path d="M246.137 79.6612C253.656 82.3211 261.907 78.3824 264.567 70.8638C267.227 63.3452 263.288 55.0939 255.77 52.4339C248.251 49.774 240 53.7127 237.34 61.2313C234.68 68.7499 238.619 77.0012 246.137 79.6612Z" fill="url(#paint10_linear_64_4292)"/>
<path d="M241.659 56.6837C241.608 56.6658 241.583 56.6568 241.566 56.6225C241.457 56.527 241.47 56.3316 241.581 56.2571C245.321 52.7023 250.666 51.5413 255.534 53.2633C256.319 53.5414 257.053 53.8865 257.769 54.2823C257.887 54.3525 257.943 54.5151 257.864 54.6583C257.794 54.776 257.631 54.8326 257.488 54.7534C256.798 54.3666 256.089 54.0304 255.329 53.7614C250.664 52.1111 245.516 53.1991 241.932 56.6377C241.854 56.6958 241.735 56.7106 241.659 56.6837Z" fill="white"/>
<path opacity="0.78" d="M261.398 73.1417C265.074 67.4899 263.473 59.9276 257.821 56.251C252.17 52.5743 244.607 54.1755 240.931 59.8273C237.254 65.4791 238.855 73.0413 244.507 76.718C250.159 80.3947 257.721 78.7935 261.398 73.1417Z" fill="white"/>
<path d="M246.987 74.5992L247.427 73.357C246.126 72.8399 244.966 72.0872 244.172 71.3498C243.896 71.0811 243.844 70.6634 244.071 70.3443L244.813 69.2948C245.092 68.9086 245.63 68.8419 245.972 69.1629C246.751 69.866 247.758 70.5649 248.975 70.9954C250.243 71.4438 251.333 71.3447 251.638 70.4827C251.916 69.6969 251.351 68.9551 249.764 67.8799C247.521 66.3165 246.107 64.5896 246.878 62.4094C247.578 60.432 249.561 59.4221 252.214 59.9044L252.654 58.6622C252.797 58.2566 253.243 58.0436 253.649 58.1871L254.384 58.4472C254.79 58.5907 255.003 59.0369 254.859 59.4425L254.465 60.558C255.664 61.0392 256.454 61.5469 257.074 62.0516C257.384 62.3039 257.452 62.7559 257.216 63.1003L256.527 64.0828C256.282 64.4525 255.745 64.5192 255.393 64.2236C254.849 63.7459 254.026 63.1695 252.834 62.748C251.339 62.2188 250.692 62.6748 250.495 63.2325C250.253 63.917 250.979 64.6872 252.715 65.9862C255.183 67.8004 255.945 69.3538 255.21 71.4326C254.537 73.3339 252.517 74.5302 249.652 74.0015L249.158 75.3959C249.015 75.8015 248.569 76.0145 248.163 75.871L247.428 75.6109C247.057 75.451 246.844 75.0048 246.987 74.5992Z" fill="url(#paint11_linear_64_4292)"/>
<defs>
<linearGradient id="paint0_linear_64_4292" x1="21.9405" y1="268.239" x2="131.429" y2="141.155" gradientUnits="userSpaceOnUse">
<stop stop-color="#FDF53F"/>
<stop offset="1" stop-color="#D93C65"/>
</linearGradient>
<linearGradient id="paint1_linear_64_4292" x1="193.297" y1="48.4638" x2="-130.464" y2="537.574" gradientUnits="userSpaceOnUse">
<stop stop-color="#FDF53F"/>
<stop offset="1" stop-color="#D93C65"/>
</linearGradient>
<linearGradient id="paint2_linear_64_4292" x1="183.64" y1="62.4782" x2="11.2439" y2="351.902" gradientUnits="userSpaceOnUse">
<stop stop-color="#FDF53F"/>
<stop offset="1" stop-color="#B93F18"/>
</linearGradient>
<linearGradient id="paint3_linear_64_4292" x1="207.781" y1="217.399" x2="260.665" y2="196.608" gradientUnits="userSpaceOnUse">
<stop stop-color="#FDF53F"/>
<stop offset="1" stop-color="#D93C65"/>
</linearGradient>
<linearGradient id="paint4_linear_64_4292" x1="293.846" y1="178.603" x2="119.568" y2="274.041" gradientUnits="userSpaceOnUse">
<stop stop-color="#FDF53F"/>
<stop offset="1" stop-color="#D93C65"/>
</linearGradient>
<linearGradient id="paint5_linear_64_4292" x1="288.738" y1="181.277" x2="191.361" y2="240.782" gradientUnits="userSpaceOnUse">
<stop stop-color="#FDF53F"/>
<stop offset="1" stop-color="#D93C65"/>
</linearGradient>
<linearGradient id="paint6_linear_64_4292" x1="6.97208" y1="78.1085" x2="29.9662" y2="32.0585" gradientUnits="userSpaceOnUse">
<stop stop-color="#FDF53F"/>
<stop offset="1" stop-color="#D93C65"/>
</linearGradient>
<linearGradient id="paint7_linear_64_4292" x1="41.3863" y1="-0.173672" x2="-18.0712" y2="169.704" gradientUnits="userSpaceOnUse">
<stop stop-color="#FDF53F"/>
<stop offset="1" stop-color="#D93C65"/>
</linearGradient>
<linearGradient id="paint8_linear_64_4292" x1="39.57" y1="4.72276" x2="10.0934" y2="103.8" gradientUnits="userSpaceOnUse">
<stop stop-color="#FDF53F"/>
<stop offset="1" stop-color="#D93C65"/>
</linearGradient>
<linearGradient id="paint9_linear_64_4292" x1="223.79" y1="81.5949" x2="250.425" y2="66.3588" gradientUnits="userSpaceOnUse">
<stop stop-color="#FDF53F"/>
<stop offset="1" stop-color="#D93C65"/>
</linearGradient>
<linearGradient id="paint10_linear_64_4292" x1="266.749" y1="54.1484" x2="181.075" y2="118.744" gradientUnits="userSpaceOnUse">
<stop stop-color="#FDF53F"/>
<stop offset="1" stop-color="#D93C65"/>
</linearGradient>
<linearGradient id="paint11_linear_64_4292" x1="264.229" y1="55.976" x2="216.841" y2="95.3701" gradientUnits="userSpaceOnUse">
<stop stop-color="#FDF53F"/>
<stop offset="1" stop-color="#D93C65"/>
</linearGradient>
</defs>
</svg>
