<svg viewBox="0 0 195 264" fill="none" xmlns="http://www.w3.org/2000/svg">
<path d="M103.247 97.6161C103.247 99.1041 102.146 100.315 100.787 100.32C99.4277 100.324 98.3203 99.1197 98.3203 97.6257C98.3203 96.1318 99.4289 94.9258 100.788 94.9258C102.147 94.9258 103.247 96.1258 103.247 97.6161Z" fill="white"/>
<g style="mix-blend-mode:multiply" opacity="0.3">
<path d="M191.284 93.1257V237.723C191.264 239.039 191.045 240.345 190.632 241.594C190.077 243.337 189.178 244.949 187.989 246.334C185.735 248.993 182.469 250.803 178.827 251.082L23.9353 262.842L14.8005 263.536C12.7126 263.708 10.6121 263.427 8.64185 262.711C4.8877 261.338 2.09296 258.421 0.979606 254.698C0.640706 253.587 0.527344 252.405 0.527344 251.166V93.1257H191.284Z" fill="#BFC8D6"/>
</g>
<path d="M182.298 5.09308L18.2242 0.00758134C10.2732 -0.239614 3.78516 5.58867 3.78516 13.0237V248.117C3.78516 255.557 10.2684 261.089 18.2242 260.485L182.298 248.043C189.171 247.522 194.709 241.543 194.709 234.686V17.8932C194.712 11.0366 189.166 5.30668 182.298 5.09308Z" fill="url(#paint0_linear_64_4206)"/>
<g style="mix-blend-mode:soft-light" opacity="0.74">
<path d="M8.41699 249.19V11.7456C8.41699 7.46527 12.1449 4.10534 16.7284 4.23974L183.596 9.11764C187.56 9.23763 190.763 12.5376 190.763 16.4975V236.252C190.763 240.212 187.56 243.66 183.596 243.954L16.732 256.322C12.1449 256.662 8.41699 253.47 8.41699 249.19Z" fill="white"/>
</g>
<path d="M182.298 5.09308L18.2242 0.00758134C10.2732 -0.239614 3.78516 5.58867 3.78516 13.0237V22.6871L194.708 26.8019V17.8932C194.712 11.0366 189.166 5.30668 182.298 5.09308Z" fill="url(#paint1_linear_64_4206)"/>
<path d="M29.4202 12.3888C29.4202 14.7971 27.3355 16.6991 24.758 16.6367C22.1804 16.5743 20.0742 14.5631 20.0742 12.1464C20.0742 9.72962 22.1721 7.82646 24.7544 7.89846C27.3367 7.97046 29.4202 9.98042 29.4202 12.3888Z" fill="white"/>
<path d="M45.6537 12.8114C45.6537 15.2041 43.5964 17.0929 41.0546 17.0317C38.5129 16.9705 36.4365 14.9725 36.4365 12.5714C36.4365 10.1702 38.5057 8.28147 41.0546 8.35227C43.6035 8.42307 45.6537 10.4198 45.6537 12.8114Z" fill="white"/>
<path d="M61.6727 13.2288C61.6727 15.6048 59.644 17.4816 57.1381 17.4216C54.6321 17.3616 52.582 15.3816 52.582 12.9913C52.582 10.6009 54.6238 8.73013 57.1381 8.79973C59.6524 8.86933 61.6727 10.8517 61.6727 13.2288Z" fill="white"/>
<path d="M86.422 66.7262C86.422 81.1451 74.6798 92.7825 59.9448 92.7177C44.9258 92.6505 32.5381 80.4959 32.5381 65.5694C32.5381 50.6429 44.9258 39.0199 59.9448 39.5983C74.6774 40.1611 86.422 52.3025 86.422 66.7262Z" fill="url(#paint2_linear_64_4206)"/>
<path opacity="0.9" d="M83.3194 66.6553C83.3194 79.3895 72.9376 89.6445 59.9388 89.5605C46.7182 89.4753 35.834 78.7607 35.834 65.6365C35.834 52.5124 46.717 42.2658 59.9388 42.747C72.9376 43.221 83.3194 53.9224 83.3194 66.6553Z" fill="white"/>
<path d="M58.0108 68.1865C58.5956 68.6557 59.2519 68.9353 59.9464 68.9485C60.6552 68.949 61.3424 68.7031 61.8915 68.2525C63.3509 67.1245 64.3557 64.7846 64.3557 62.4098C64.3557 59.0847 62.3843 56.9355 59.9464 56.8683C57.5085 56.8011 55.5156 58.8543 55.5156 62.1986C55.5156 64.595 56.5323 66.9961 58.0108 68.1865Z" fill="url(#paint3_linear_64_4206)"/>
<path d="M70.2418 76.8408C69.8068 75.9566 69.274 75.1245 68.6535 74.3604C68.5938 74.286 68.4733 74.2164 68.4041 74.1444C68.4041 74.1444 68.3778 74.1313 68.3718 74.1253C68.3659 74.1193 68.3277 74.0833 68.3098 74.0617C68.2919 74.0401 68.2501 73.9945 68.2203 73.9633C68.2071 73.9441 68.1914 73.9267 68.1738 73.9117C68.1129 73.8373 68.0449 73.7653 67.9792 73.6957L67.9446 73.6609C67.9208 73.6345 67.8957 73.6093 67.8707 73.5841L67.8623 73.5745L67.8074 73.5169C67.7824 73.4941 67.7597 73.4701 67.737 73.4473C67.7232 73.4312 67.7085 73.416 67.6929 73.4017L67.5556 73.2685L67.527 73.2409L67.348 73.0753C67.3229 73.0537 67.2991 73.0285 67.274 73.0069C67.2275 72.9649 67.1797 72.9217 67.1308 72.8869L67.0962 72.8581C65.7222 71.6719 64.0854 70.8345 62.323 70.4161C62.2633 70.4005 62.2036 70.3873 62.144 70.3741V70.3801C61.6063 70.2638 61.0605 70.1887 60.5115 70.1557C60.3242 70.1449 60.1392 70.1293 59.9495 70.1257C59.1511 70.1113 58.3707 70.7689 57.6189 70.3393H57.5939C57.5858 70.3381 57.5781 70.3353 57.5712 70.3309V70.3393C54.07 71.1997 51.1691 73.3897 49.7765 76.5564C49.1833 77.902 48.8772 79.3577 48.8779 80.8295V81.1799L71.1188 81.4343V81.0899C71.1188 79.5863 70.6904 78.1536 70.2632 76.8468L70.2418 76.8408Z" fill="url(#paint4_linear_64_4206)"/>
<path d="M48.2914 64.0107C50.7663 64.0671 52.7663 60.7887 52.7663 57.4384C52.7663 54.0881 50.7663 51.9185 48.2914 51.8405C45.8165 51.7625 43.7891 53.8265 43.7891 57.196C43.7891 60.5655 45.8081 63.9543 48.2914 64.0107Z" fill="url(#paint5_linear_64_4206)"/>
<path d="M55.661 68.4398C55.661 68.4398 55.6706 68.1854 55.6766 68.1854C55.8257 68.1854 55.9797 68.441 56.1324 68.2706C56.1432 68.2802 56.1324 68.4146 56.1408 68.4242C56.1491 68.4338 56.1252 68.5514 56.1252 68.5538L56.1718 68.1938H56.1634C55.735 68.1938 55.2708 67.5495 54.7768 67.1859C54.7768 67.1991 54.7911 67.2879 54.7971 67.3059C54.8031 67.3239 54.7971 67.3395 54.7887 67.3371C52.9399 65.9731 50.7163 65.2185 48.4236 65.1771C42.2339 65.0415 37.3115 69.8774 37.3115 75.9541V76.0129L47.71 76.1701C47.6857 76.1854 47.6602 76.1987 47.6336 76.2097C48.9666 72.5066 51.8926 69.5918 55.661 68.4398Z" fill="url(#paint6_linear_64_4206)"/>
<path d="M56.1719 68.579C56.2387 68.6209 56.2992 68.6722 56.3516 68.7314C56.3 68.6704 56.2394 68.6177 56.1719 68.5754V68.579Z" fill="url(#paint7_linear_64_4206)"/>
<path d="M71.2801 64.5313C73.6834 64.5865 75.6261 61.355 75.6261 58.0515C75.6261 54.7479 73.6834 52.612 71.2801 52.5388C68.8767 52.4656 66.9102 54.4959 66.9102 57.8187C66.9102 61.1414 68.8696 64.4773 71.2801 64.5313Z" fill="url(#paint8_linear_64_4206)"/>
<path d="M70.9342 65.6811C68.68 65.6319 66.7576 66.2715 65.0047 67.4067C64.4695 67.7717 63.9711 68.1885 63.5166 68.6511H63.5655C63.7684 68.7123 63.9903 68.6018 64.1896 68.675C67.9414 70.0178 70.6788 73.3634 71.9867 76.5193L81.3625 76.6621V76.6057C81.3625 70.7018 76.8996 65.8119 70.9342 65.6811Z" fill="url(#paint9_linear_64_4206)"/>
<path d="M164.766 52.2161L102.32 50.1858V42.7219L164.766 45.0583V52.2161Z" fill="white"/>
<path d="M178.025 68.5105L102.32 66.8689V59.405L178.025 61.421V68.5105Z" fill="white"/>
<path d="M178.025 84.3598L102.32 83.5522V76.0884L178.025 77.2704V84.3598Z" fill="white"/>
<path d="M178.025 199.058L20.626 209.903V202.039L178.025 191.968V199.058Z" fill="white"/>
<path d="M178.025 214.491L20.626 227.018V219.617L178.025 207.817V214.491Z" fill="white"/>
<path opacity="0.42" d="M97.6148 178.631L20.626 182.611V107.21L97.6148 106.844V178.631Z" fill="white"/>
<path d="M90.3444 124.139L27.8984 125.136V117.308L90.3444 116.618V124.139Z" fill="white"/>
<path d="M90.3444 139.183L27.8984 140.795V133.426L90.3444 132.103V139.183Z" fill="white"/>
<path d="M90.3444 154.668L27.8984 156.913V149.084L90.3444 147.146V154.668Z" fill="white"/>
<path d="M90.3444 169.712L27.8984 172.571V164.743L90.3444 162.19V169.712Z" fill="white"/>
<path opacity="0.42" d="M178.025 174.45L110.019 177.981V106.784L178.025 106.466V174.45Z" fill="white"/>
<path d="M126.7 170.212L117.289 170.637V147.17L126.7 146.886V170.212Z" fill="white"/>
<path d="M141.669 169.503L132.259 169.952V133.367L141.669 133.153V169.503Z" fill="white"/>
<path d="M157.067 168.782L147.229 169.226V121.517L157.067 121.378V168.782Z" fill="white"/>
<path d="M170.754 168.116L162.199 168.538V113.711L170.754 113.626V168.116Z" fill="white"/>
<defs>
<linearGradient id="paint0_linear_64_4206" x1="8.98025" y1="247.5" x2="202.92" y2="64.5789" gradientUnits="userSpaceOnUse">
<stop stop-color="#3E8F35"/>
<stop offset="1" stop-color="#68B735"/>
</linearGradient>
<linearGradient id="paint1_linear_64_4206" x1="100.265" y1="10.3454" x2="83.7784" y2="158.537" gradientUnits="userSpaceOnUse">
<stop stop-color="#E88B00"/>
<stop offset="1" stop-color="#3C3B6B"/>
</linearGradient>
<linearGradient id="paint2_linear_64_4206" x1="78.8314" y1="-18.2106" x2="47.8312" y2="115.38" gradientUnits="userSpaceOnUse">
<stop stop-color="#E38904"/>
<stop offset="1" stop-color="#F96868"/>
</linearGradient>
<linearGradient id="paint3_linear_64_4206" x1="65.8175" y1="37.4095" x2="44.7408" y2="125.802" gradientUnits="userSpaceOnUse">
<stop stop-color="#EF8F02"/>
<stop offset="0.436687" stop-color="#C8826D"/>
<stop offset="1" stop-color="#9571F6"/>
</linearGradient>
<linearGradient id="paint4_linear_64_4206" x1="69.9518" y1="38.2039" x2="48.7269" y2="127.22" gradientUnits="userSpaceOnUse">
<stop stop-color="#E98C01"/>
<stop offset="1" stop-color="#9571F6"/>
</linearGradient>
<linearGradient id="paint5_linear_64_4206" x1="53.7627" y1="34.1145" x2="32.533" y2="123.152" gradientUnits="userSpaceOnUse">
<stop stop-color="#E98C01"/>
<stop offset="1" stop-color="#9571F6"/>
</linearGradient>
<linearGradient id="paint6_linear_64_4206" x1="55.2004" y1="35.6277" x2="34.7401" y2="121.44" gradientUnits="userSpaceOnUse">
<stop stop-color="#E98C01"/>
<stop offset="1" stop-color="#9571F6"/>
</linearGradient>
<linearGradient id="paint7_linear_64_4206" x1="63.9496" y1="35.9643" x2="42.2159" y2="126.863" gradientUnits="userSpaceOnUse">
<stop stop-color="#E38DDD"/>
<stop offset="1" stop-color="#9571F6"/>
</linearGradient>
<linearGradient id="paint8_linear_64_4206" x1="75.4829" y1="40.1178" x2="54.5716" y2="127.822" gradientUnits="userSpaceOnUse">
<stop stop-color="#FF9800"/>
<stop offset="1" stop-color="#9571F6"/>
</linearGradient>
<linearGradient id="paint9_linear_64_4206" x1="79.6167" y1="42.2204" x2="59.4916" y2="126.622" gradientUnits="userSpaceOnUse">
<stop stop-color="#FF9800"/>
<stop offset="1" stop-color="#CD7C05"/>
</linearGradient>
</defs>
</svg>
