<svg width="36" height="48" viewBox="0 0 36 48" fill="none" xmlns="http://www.w3.org/2000/svg">
<g clip-path="url(#clip0_658_2581)">
<path d="M17.9994 12.1201C16.9387 12.1201 15.9019 12.4439 15.02 13.0507C14.1382 13.6574 13.4508 14.5197 13.0449 15.5286C12.639 16.5375 12.5328 17.6477 12.7398 18.7187C12.9467 19.7898 13.4574 20.7736 14.2074 21.5458C14.9574 22.318 15.9129 22.8439 16.9532 23.0569C17.9934 23.27 19.0717 23.1606 20.0515 22.7427C21.0314 22.3248 21.869 21.6171 22.4582 20.7091C23.0475 19.8011 23.362 18.7336 23.362 17.6416C23.3603 16.1777 22.7948 14.7743 21.7895 13.7392C20.7842 12.7041 19.4211 12.1218 17.9994 12.1201Z" fill="#E63033"/>
<path d="M18 2.77447e-07C15.6364 -0.000420841 13.2958 0.478553 11.1119 1.40958C8.92809 2.3406 6.94376 3.70544 5.27227 5.42614C3.60077 7.14683 2.27485 9.18969 1.37023 11.438C0.465608 13.6864 -3.53873e-08 16.0962 0 18.5299C0 27.2577 13.0796 43.0461 16.9412 47.5094C17.0741 47.6628 17.237 47.7855 17.4192 47.8696C17.6014 47.9536 17.7988 47.997 17.9984 47.997C18.1981 47.997 18.3955 47.9536 18.5777 47.8696C18.7599 47.7855 18.9228 47.6628 19.0557 47.5094C22.9111 43.0461 36 27.2577 36 18.5299C36 16.0962 35.5344 13.6864 34.6298 11.438C33.7252 9.18969 32.3992 7.14683 30.7277 5.42614C29.0562 3.70544 27.0719 2.3406 24.8881 1.40958C22.7042 0.478553 20.3636 -0.000420841 18 2.77447e-07ZM18 26.8056C16.2395 26.8062 14.5184 26.2693 13.0544 25.2628C11.5903 24.2562 10.4491 22.8252 9.77493 21.1508C9.10081 19.4764 8.92411 17.6337 9.26718 15.8559C9.61025 14.078 10.4577 12.4449 11.7023 11.1629C12.9469 9.88102 14.5328 9.00792 16.2594 8.65407C17.986 8.30021 19.7757 8.48151 21.4022 9.17501C23.0287 9.86851 24.4189 11.0431 25.397 12.5501C26.3752 14.0572 26.8972 15.8291 26.8972 17.6417C26.8948 20.0708 25.9567 22.3997 24.2888 24.1176C22.6208 25.8355 20.3592 26.8022 18 26.8056Z" fill="#E63033"/>
</g>
<defs>
<clipPath id="clip0_658_2581">
<rect width="36" height="48" fill="white"/>
</clipPath>
</defs>
</svg>
