<svg viewBox="0 0 941 648" fill="none" xmlns="http://www.w3.org/2000/svg">
<path d="M619.996 525.786C619.996 525.786 742.934 365.698 941 457.502C941 457.502 847.659 627.453 641.245 541.719L619.996 525.786Z" fill="url(#paint0_linear_64_225)"/>
<path d="M940.243 458.262L619.238 526.546L649.593 539.444C650.352 539.444 824.894 613.038 940.243 458.262Z" fill="#94C995"/>
<path d="M283.819 532.615C283.819 532.615 72.0931 479.505 0 220.026C0 220.026 190.478 170.71 331.628 464.331L283.819 532.615Z" fill="url(#paint1_linear_64_225)"/>
<path d="M16.6914 232.925L300.511 499.991L247.389 506.819C246.63 507.578 60.7062 443.087 16.6914 232.925Z" fill="#F1F9FF" fill-opacity="0.49"/>
<path d="M670.848 465.089C670.848 465.089 719.416 301.208 863.602 318.658C863.602 317.9 846.148 484.816 670.848 465.089Z" fill="url(#paint2_radial_64_225)"/>
<path d="M863.597 317.899L676.914 453.708C677.673 453.708 815.029 494.679 863.597 317.899Z" fill="#BDE0FF"/>
<path d="M472.016 144.914C333.142 144.914 220.828 257.203 220.828 396.047C220.828 534.891 333.142 647.18 472.016 647.18C610.89 647.18 723.203 534.891 723.203 396.047C723.962 257.203 610.89 144.914 472.016 144.914ZM472.016 555.376C383.986 555.376 312.652 484.057 312.652 396.047C312.652 308.037 383.986 236.718 472.016 236.718C560.045 236.718 631.38 308.037 631.38 396.047C632.138 484.057 560.045 555.376 472.016 555.376Z" fill="url(#paint3_linear_64_225)"/>
<path d="M226.901 251.134C226.901 251.134 180.609 362.665 235.248 478.747C235.248 478.747 324.037 643.387 472.776 647.939C621.516 651.733 710.304 478.747 710.304 478.747C710.304 478.747 762.667 349.766 712.581 236.719L638.97 238.236C638.97 238.236 679.949 572.827 472.776 556.135C266.362 539.444 284.575 306.52 284.575 306.52L226.901 251.134Z" fill="url(#paint4_linear_64_225)"/>
<path d="M472.018 78.9062C327.832 78.9062 210.965 195.747 210.965 339.902C210.965 484.057 327.832 600.898 472.018 600.898C616.204 600.898 733.071 484.057 733.071 339.902C733.071 195.747 616.204 78.9062 472.018 78.9062ZM472.018 514.406C375.641 514.406 297.477 436.258 297.477 339.902C297.477 243.546 375.641 165.399 472.018 165.399C568.395 165.399 646.559 243.546 646.559 339.902C646.559 436.258 568.395 514.406 472.018 514.406Z" fill="url(#paint5_radial_64_225)"/>
<path d="M726.241 278.447C709.546 208.646 664.013 149.466 603.303 114.566C564.6 91.8043 519.827 78.9062 472.018 78.9062C327.832 78.9062 210.965 195.747 210.965 339.902C210.965 367.975 215.518 395.288 223.866 421.084C246.632 489.368 295.959 545.513 360.463 575.861C394.612 591.794 431.797 600.898 472.018 600.898C616.204 600.898 733.071 484.057 733.071 339.902C733.071 318.658 730.794 298.173 726.241 278.447ZM472.018 514.406C460.635 514.406 450.011 513.647 439.386 511.371C365.017 497.714 307.342 436.258 298.235 360.387C297.477 353.559 296.718 346.731 296.718 339.902C296.718 243.546 374.882 165.399 471.259 165.399C490.99 165.399 509.961 168.434 527.416 174.504C596.473 198.024 645.8 263.273 645.8 339.902C645.8 340.661 645.8 341.42 645.8 342.937C645.041 437.776 567.636 514.406 472.018 514.406Z" fill="url(#paint6_radial_64_225)"/>
<path d="M472.022 165.398C375.645 165.398 297.48 243.546 297.48 339.902C297.48 436.258 375.645 514.405 472.022 514.405C568.399 514.405 646.563 436.258 646.563 339.902C646.563 243.546 568.399 165.398 472.022 165.398ZM472.022 506.059C380.198 506.059 305.828 431.706 305.828 339.902C305.828 248.098 380.198 173.744 472.022 173.744C563.846 173.744 638.215 248.098 638.215 339.902C638.215 431.706 563.846 506.059 472.022 506.059Z" fill="url(#paint7_linear_64_225)"/>
<path opacity="0.5" d="M440.145 511.37L361.223 575.86C296.718 545.512 246.632 489.367 224.625 421.083L298.995 360.387C307.343 436.258 365.776 497.713 440.145 511.37Z" fill="white"/>
<path opacity="0.5" d="M646.564 342.937C646.564 342.178 646.564 341.419 646.564 339.902C646.564 263.272 597.237 198.023 528.18 174.503L602.55 113.807C663.26 148.707 708.033 207.887 725.487 277.688L646.564 342.937Z" fill="white"/>
<path d="M387.02 586.483C387.02 586.483 509.957 622.901 647.314 533.373C646.555 534.132 557.008 635.799 387.02 586.483Z" fill="url(#paint8_radial_64_225)"/>
<path opacity="0.5" d="M361.224 575.861L374.883 627.453C374.883 627.453 272.435 594.828 227.662 461.295L223.867 420.325C223.867 421.084 253.463 524.268 361.224 575.861Z" fill="white"/>
<path d="M821.863 229.889L876.502 145.672L905.34 166.157L847.665 244.304L821.863 229.889Z" fill="#E88A01"/>
<path d="M191.238 81.1824L276.232 14.416L296.722 43.2469L219.317 104.702L191.238 81.1824Z" fill="#E88A01"/>
<path d="M142.667 502.266L80.4392 533.373L65.2617 502.266L128.248 465.089L142.667 502.266Z" fill="#3E8F35"/>
<path d="M558.527 17.4503L602.542 66.0077L619.996 46.2813L578.258 0L558.527 17.4503Z" fill="#3EA632"/>
<path d="M286.094 300.448L343.009 202.575L465.947 300.448C465.947 300.448 605.58 158.569 716.376 122.151L747.49 248.097C747.49 248.097 607.857 282.239 477.33 442.327L286.094 300.448Z" fill="url(#paint9_linear_64_225)"/>
<path d="M286.094 345.212L343.009 247.338L465.947 345.212C465.947 345.212 605.58 203.333 716.376 166.915L747.49 292.861C747.49 292.861 607.857 327.003 477.33 487.091L286.094 345.212Z" fill="url(#paint10_linear_64_225)"/>
<path d="M716.375 122.151V166.915L746.73 293.62V235.958L716.375 122.151Z" fill="#CD4A00"/>
<path d="M343.009 201.816V247.339L286.094 345.212V300.449L343.009 201.816Z" fill="#CD4A00"/>
<path d="M716.374 122.151V167.674C683.742 179.055 649.593 198.022 617.72 220.025C535.003 275.411 465.945 345.971 465.945 345.971V300.448C506.925 259.478 544.109 227.612 576.741 202.575C608.614 179.055 635.174 161.604 657.182 149.465C695.125 128.221 716.374 122.151 716.374 122.151Z" fill="white"/>
<path d="M670.841 186.642L617.72 219.266L600.266 185.883C635.933 161.604 635.933 161.604 657.94 149.465L670.841 186.642Z" fill="white"/>
<defs>
<linearGradient id="paint0_linear_64_225" x1="688.967" y1="428.236" x2="870.782" y2="557.185" gradientUnits="userSpaceOnUse">
<stop stop-color="#175610"/>
<stop offset="1" stop-color="#3E8F35"/>
</linearGradient>
<linearGradient id="paint1_linear_64_225" x1="216.802" y1="549.311" x2="128.305" y2="189.053" gradientUnits="userSpaceOnUse">
<stop stop-color="#2E7826"/>
<stop offset="1" stop-color="#1BA60B"/>
</linearGradient>
<radialGradient id="paint2_radial_64_225" cx="0" cy="0" r="1" gradientUnits="userSpaceOnUse" gradientTransform="translate(782.195 343.674) rotate(156.939) scale(91.6026 91.5888)">
<stop stop-color="#3E8F35"/>
<stop offset="1" stop-color="#1A5513"/>
</radialGradient>
<linearGradient id="paint3_linear_64_225" x1="220.826" y1="395.904" x2="723.603" y2="395.904" gradientUnits="userSpaceOnUse">
<stop stop-color="#A59400"/>
<stop offset="1" stop-color="#E6C100"/>
</linearGradient>
<linearGradient id="paint4_linear_64_225" x1="208.332" y1="441.767" x2="733.545" y2="441.767" gradientUnits="userSpaceOnUse">
<stop stop-color="#BEAE1D"/>
<stop offset="1" stop-color="#DFCB01"/>
</linearGradient>
<radialGradient id="paint5_radial_64_225" cx="0" cy="0" r="1" gradientUnits="userSpaceOnUse" gradientTransform="translate(582.443 106.235) scale(261.152 261.095)">
<stop stop-color="#39AEF7"/>
<stop offset="1" stop-color="#6840D5"/>
</radialGradient>
<radialGradient id="paint6_radial_64_225" cx="0" cy="0" r="1" gradientUnits="userSpaceOnUse" gradientTransform="translate(491.377 124.753) scale(372.674 372.592)">
<stop stop-color="#F7EF39"/>
<stop offset="1" stop-color="#D5BD40"/>
</radialGradient>
<linearGradient id="paint7_linear_64_225" x1="472.21" y1="514.595" x2="472.21" y2="165.176" gradientUnits="userSpaceOnUse">
<stop stop-color="#FBE824"/>
<stop offset="1" stop-color="#FFF509"/>
</linearGradient>
<radialGradient id="paint8_radial_64_225" cx="0" cy="0" r="1" gradientUnits="userSpaceOnUse" gradientTransform="translate(526.48 539.771) scale(93.9731 93.9525)">
<stop stop-color="#FDF53F"/>
<stop offset="1" stop-color="#FFF853" stop-opacity="0.33"/>
</radialGradient>
<linearGradient id="paint9_linear_64_225" x1="516.537" y1="442.067" x2="516.537" y2="121.834" gradientUnits="userSpaceOnUse">
<stop stop-color="#FFAB2D"/>
<stop offset="1" stop-color="#F73D24"/>
</linearGradient>
<linearGradient id="paint10_linear_64_225" x1="516.537" y1="487.287" x2="516.537" y2="167.053" gradientUnits="userSpaceOnUse">
<stop stop-color="#F4A32A"/>
<stop offset="1" stop-color="#BC4F00"/>
</linearGradient>
</defs>
</svg>
