<svg viewBox="0 0 40 40" fill="none" xmlns="http://www.w3.org/2000/svg">
<path fill-rule="evenodd" clip-rule="evenodd" d="M29.1647 23.97C28.6656 23.7217 26.2189 22.525 25.7634 22.3584C25.3079 22.1934 24.9763 22.1117 24.643 22.6084C24.3114 23.1017 23.3585 24.2184 23.0688 24.5484C22.7774 24.88 22.4877 24.92 21.9903 24.6734C21.4929 24.4234 19.8886 23.9017 17.9878 22.215C16.5091 20.9017 15.5093 19.28 15.2196 18.7834C14.9298 18.2884 15.1877 18.02 15.4373 17.7734C15.6617 17.5517 15.9346 17.195 16.1842 16.9067C16.4337 16.6167 16.5158 16.41 16.6816 16.0784C16.849 15.7484 16.7653 15.46 16.6397 15.2117C16.5158 14.9634 15.521 12.525 15.1057 11.5334C14.7021 10.5684 14.2918 10.7001 13.987 10.6834C13.6956 10.6701 13.364 10.6667 13.0324 10.6667C12.7008 10.6667 12.1616 10.7901 11.7061 11.2867C11.2489 11.7817 9.96439 12.98 9.96439 15.4184C9.96439 17.855 11.7463 20.21 11.9958 20.5417C12.2453 20.8717 15.5043 25.875 20.4965 28.02C21.6855 28.53 22.6116 28.835 23.3334 29.0617C24.5258 29.44 25.611 29.3867 26.4684 29.2584C27.423 29.1167 29.4125 28.06 29.8279 26.9034C30.2415 25.7467 30.2415 24.755 30.1176 24.5484C29.9936 24.3417 29.6621 24.2184 29.163 23.97H29.1647ZM20.0845 36.3083H20.0778C17.1127 36.3089 14.202 35.5156 11.6508 34.0117L11.0479 33.655L4.78123 35.2917L6.45424 29.2117L6.06069 28.5884C4.40298 25.9623 3.52571 22.923 3.53024 19.8217C3.53359 10.7384 10.9592 3.3484 20.0912 3.3484C24.5124 3.3484 28.669 5.06506 31.7939 8.17839C33.3353 9.70602 34.557 11.5227 35.3883 13.5232C36.2196 15.5238 36.6441 17.6685 36.6371 19.8334C36.6338 28.9167 29.2082 36.3083 20.0845 36.3083ZM34.172 5.81339C32.3268 3.96493 30.1314 2.49929 27.7129 1.5014C25.2944 0.503507 22.7009 -0.00679373 20.0828 6.82958e-05C9.10695 6.82958e-05 0.170818 8.89172 0.167469 19.82C0.165794 23.3134 1.08185 26.7234 2.8252 29.7283L0 40L10.5572 37.2433C13.4777 38.8269 16.7504 39.6566 20.0761 39.6567H20.0845C31.0604 39.6567 39.9966 30.765 39.9999 19.835C40.008 17.2305 39.4971 14.6502 38.4967 12.2434C37.4964 9.83666 36.0265 7.65117 34.172 5.81339Z"/>
</svg>
