<svg width="20" height="20" viewBox="0 0 20 20" fill="none" xmlns="http://www.w3.org/2000/svg">
<path d="M3.62897 14.8712L4.52059 15.324L4.80498 14.764L4.42399 14.2646L3.62897 14.8712ZM5.28138 16.4982L5.87605 15.6942L5.38627 15.332L4.83969 15.601L5.28138 16.4982ZM1.97656 18.1252L1.08494 17.6724C0.890045 18.0562 0.96261 18.5216 1.26508 18.8279C1.56756 19.1341 2.03207 19.2125 2.41825 19.0224L1.97656 18.1252ZM6.93449 6.73468L6.34045 5.93025C6.08515 6.11878 5.93449 6.41731 5.93449 6.73468H6.93449ZM13.5451 13.2435V14.2435C13.8374 14.2435 14.115 14.1157 14.305 13.8935L13.5451 13.2435ZM7.44802 6.35547L6.85397 5.55103L7.44802 6.35547ZM8.76375 6.90544L7.77171 7.03138V7.03138L8.76375 6.90544ZM8.95017 8.37385L9.94221 8.24791V8.24791L8.95017 8.37385ZM8.71453 9.05008L8.01292 8.33751L8.01292 8.33751L8.71453 9.05008ZM13.9114 12.8152L13.1514 12.1653V12.1653L13.9114 12.8152ZM13.399 11.4861L13.5416 10.4964L13.399 11.4861ZM11.8898 11.2687L12.0324 10.2789L11.8898 11.2687ZM11.1859 11.4984L11.8875 12.211H11.8875L11.1859 11.4984ZM0.976573 9.98911C0.976573 12.0489 1.66885 13.9508 2.83395 15.4778L4.42399 14.2646C3.51396 13.0719 2.97657 11.5929 2.97657 9.98911H0.976573ZM10.2398 0.853027C5.13853 0.853027 0.976573 4.92883 0.976573 9.98911H2.97657C2.97657 6.06252 6.21375 2.85303 10.2398 2.85303V0.853027ZM19.503 9.98911C19.503 4.92883 15.3411 0.853027 10.2398 0.853027V2.85303C14.2658 2.85303 17.503 6.06252 17.503 9.98911L19.503 9.98911ZM10.2398 19.1252C15.3411 19.1252 19.503 15.0494 19.503 9.98911L17.503 9.98911C17.503 13.9157 14.2658 17.1252 10.2398 17.1252L10.2398 19.1252ZM4.6867 17.3022C6.23508 18.4475 8.15925 19.1252 10.2398 19.1252L10.2398 17.1252C8.59944 17.1252 7.08994 16.5921 5.87605 15.6942L4.6867 17.3022ZM2.41825 19.0224L5.72306 17.3954L4.83969 15.601L1.53488 17.228L2.41825 19.0224ZM2.73735 14.4184L1.08494 17.6724L2.86819 18.578L4.52059 15.324L2.73735 14.4184ZM5.93449 6.73468V7.54829H7.93449V6.73468H5.93449ZM12.7187 14.2435H13.5451V12.2435H12.7187V14.2435ZM5.93449 7.54829C5.93449 11.2605 8.98658 14.2435 12.7187 14.2435V12.2435C10.0618 12.2435 7.93449 10.1268 7.93449 7.54829H5.93449ZM7.52854 7.53912L8.04206 7.1599L6.85397 5.55103L6.34045 5.93025L7.52854 7.53912ZM7.77171 7.03138L7.95813 8.4998L9.94221 8.24791L9.75579 6.7795L7.77171 7.03138ZM8.01292 8.33751L7.05921 9.27655L8.46242 10.7017L9.41613 9.76264L8.01292 8.33751ZM7.95813 8.4998C7.95012 8.43666 7.97291 8.37691 8.01292 8.33751L9.41613 9.76264C9.81676 9.36818 10.0135 8.80931 9.94221 8.24791L7.95813 8.4998ZM8.04206 7.1599C7.99094 7.19765 7.92413 7.19808 7.88105 7.18008C7.85969 7.17115 7.83537 7.155 7.81362 7.12765C7.78986 7.09777 7.77563 7.06222 7.77171 7.03138L9.75579 6.7795C9.57816 5.38037 7.95824 4.73558 6.85397 5.55103L8.04206 7.1599ZM14.305 13.8935L14.6713 13.4652L13.1514 12.1653L12.7851 12.5936L14.305 13.8935ZM13.5416 10.4964L12.0324 10.2789L11.7472 12.2585L13.2564 12.4759L13.5416 10.4964ZM10.4843 10.7858L9.53818 11.7174L10.9414 13.1425L11.8875 12.211L10.4843 10.7858ZM12.0324 10.2789C11.4675 10.1975 10.8935 10.3829 10.4843 10.7858L11.8875 12.211C11.8475 12.2503 11.7954 12.2654 11.7472 12.2585L12.0324 10.2789ZM14.6713 13.4652C15.6148 12.3621 14.9406 10.6979 13.5416 10.4964L13.2564 12.4759C13.1387 12.459 13.0421 12.293 13.1514 12.1653L14.6713 13.4652Z" fill="white"/>
</svg>
